<?xml version="1.0" encoding="utf-8" standalone="no"?>
<!DOCTYPE svg PUBLIC "-//W3C//DTD SVG 1.1//EN"
  "http://www.w3.org/Graphics/SVG/1.1/DTD/svg11.dtd">
<!-- Created with matplotlib (http://matplotlib.org/) -->
<svg height="817pt" version="1.1" viewBox="0 0 1728 817" width="1728pt" xmlns="http://www.w3.org/2000/svg" xmlns:xlink="http://www.w3.org/1999/xlink">
 <defs>
  <style type="text/css">
*{stroke-linecap:butt;stroke-linejoin:round;}
  </style>
 </defs>
 <g id="figure_1">
  <g id="patch_1">
   <path d="
M0 817.2
L1728 817.2
L1728 0
L0 0
z
" style="fill:#ffffff;"/>
  </g>
  <g id="axes_1">
   <g id="patch_2">
    <path d="
M216 735.48
L1555.2 735.48
L1555.2 81.72
L216 81.72
z
" style="fill:#ffffff;"/>
   </g>
   <g id="line2d_1">
    <path clip-path="url(#pb795613d17)" d="
M216 133.646
L222.696 622.304
L229.392 663.81
L236.088 679.013
L242.784 707.246
L249.48 715.21
L256.176 716.658
L262.872 719.795
L269.568 717.382
L276.264 713.521
L282.96 720.277
L289.656 715.451
L296.352 716.416
L303.048 718.347
L309.744 715.934
L316.44 716.658
L323.136 713.521
L329.832 716.658
L336.528 720.76
L343.224 721.243
L349.92 716.899
L356.616 720.76
L363.312 721.725
L370.008 727.517
L376.704 718.105
L383.4 723.656
L390.096 723.173
L396.792 731.378
L403.488 731.619
L410.184 731.378
L416.88 732.343
L423.576 731.378
L430.272 731.86
L436.968 729.447
L443.664 731.619
L450.36 727.034
L457.056 724.38
L463.752 727.275
L470.448 721.725
L477.144 722.208
L483.84 725.827
L490.536 728.241
L497.232 728.723
L503.928 731.136
L510.624 725.345
L517.32 731.136
L524.016 721.243
L530.712 722.69
L537.408 729.688
L544.104 730.895
L550.8 732.343
L557.496 731.378
L564.192 731.136
L570.888 733.791
L584.28 732.826
L590.976 733.549
L597.672 732.343
L604.368 730.895
L611.064 732.584
L617.76 729.206
L624.456 731.619
L631.152 732.584
L637.848 731.619
L644.544 731.86
L651.24 732.584
L657.936 613.617
L664.632 664.293
L671.328 705.557
L678.024 710.383
L684.72 722.208
L691.416 724.862
L698.112 725.345
L704.808 727.758
L711.504 729.93
L718.2 728.723
L724.896 721.001
L731.592 726.793
L738.288 725.586
L744.984 728.482
L751.68 727.758
L758.376 727.999
L765.072 719.312
L771.768 719.795
L778.464 723.414
L785.16 727.275
L791.856 728.965
L798.552 732.343
L805.248 731.619
L811.944 727.999
L818.64 730.895
L832.032 731.86
L838.728 720.036
L845.424 729.688
L852.12 731.378
L858.816 732.343
L865.512 731.86
L872.208 733.791
L878.904 719.795
L885.6 723.656
L892.296 728.482
L898.992 730.171
L905.688 730.654
L912.384 731.86
L919.08 731.619
L925.776 729.93
L932.472 730.171
L939.168 731.378
L945.864 731.378
L952.56 731.86
L959.256 732.102
L965.952 730.895
L972.648 732.826
L979.344 734.273
L986.04 732.826
L992.736 733.549
L1006.13 733.549
L1012.82 734.032
L1019.52 733.791
L1026.22 733.308
L1039.61 733.791
L1046.3 733.791
L1053 732.826
L1059.7 732.826
L1066.39 732.584
L1073.09 734.756
L1079.78 731.378
L1093.18 733.791
L1099.87 733.791
L1106.57 186.735
L1113.26 562.7
L1119.96 652.71
L1133.35 700.248
L1140.05 704.592
L1146.74 716.899
L1153.44 715.692
L1160.14 716.658
L1166.83 718.588
L1173.53 712.073
L1180.22 714.727
L1186.92 701.214
L1193.62 716.175
L1200.31 716.416
L1207.01 724.138
L1213.7 716.658
L1220.4 714.968
L1227.1 723.173
L1233.79 721.966
L1240.49 721.001
L1247.18 720.519
L1253.88 724.138
L1260.58 724.862
L1273.97 727.758
L1280.66 725.827
L1287.36 727.517
L1294.06 728.723
L1300.75 729.206
L1307.45 731.378
L1314.14 731.619
L1320.84 730.171
L1327.54 730.654
L1334.23 730.412
L1340.93 725.586
L1347.62 700.731
L1354.32 719.795
L1361.02 715.934
L1367.71 725.586
L1374.41 723.897
L1381.1 724.138
L1387.8 728.482
L1394.5 727.275
L1401.19 728.723
L1407.89 728.723
L1414.58 730.171
L1421.28 723.173
L1427.98 728.965
L1434.67 731.136
L1441.37 731.378
L1448.06 731.86
L1454.76 729.688
L1461.46 731.378
L1468.15 733.791
L1474.85 731.378
L1481.54 728.482
L1488.24 729.447
L1494.94 730.895
L1501.63 730.412
L1508.33 728.723
L1515.02 730.654
L1521.72 730.895
L1528.42 733.067
L1535.11 732.826
L1541.81 730.895
L1548.5 729.688
L1548.5 729.688" style="fill:none;stroke:#66cc00;stroke-linecap:square;stroke-width:3.0;"/>
   </g>
   <g id="line2d_2">
    <path clip-path="url(#pb795613d17)" d="
M216 726.551
L222.696 732.826
L229.392 732.102
L236.088 732.826
L242.784 733.308
L249.48 732.102
L256.176 733.308
L262.872 733.308
L269.568 732.826
L276.264 731.619
L282.96 728.723
L289.656 731.619
L296.352 733.067
L303.048 730.412
L309.744 733.549
L316.44 733.791
L323.136 732.343
L329.832 732.826
L343.224 732.343
L356.616 728.965
L363.312 728.723
L370.008 730.654
L376.704 732.343
L383.4 731.378
L390.096 730.654
L396.792 733.791
L403.488 731.619
L410.184 733.549
L416.88 733.549
L423.576 733.067
L430.272 733.549
L436.968 731.86
L443.664 733.308
L450.36 729.206
L457.056 731.619
L463.752 727.034
L470.448 731.136
L477.144 731.619
L483.84 730.412
L490.536 731.378
L497.232 727.999
L503.928 730.654
L510.624 723.656
L517.32 730.171
L524.016 725.827
L530.712 730.895
L537.408 731.136
L544.104 729.688
L550.8 729.93
L557.496 728.965
L564.192 730.412
L570.888 725.827
L577.584 728.723
L584.28 726.551
L590.976 728.723
L597.672 726.31
L604.368 724.862
L611.064 729.206
L617.76 726.793
L624.456 727.034
L631.152 720.519
L637.848 715.451
L644.544 707.729
L651.24 691.561
L657.936 630.992
L664.632 725.827
L671.328 728.965
L678.024 727.999
L684.72 725.104
L691.416 725.827
L698.112 730.412
L704.808 729.688
L711.504 731.86
L718.2 728.482
L724.896 729.93
L731.592 723.656
L738.288 721.966
L744.984 726.31
L751.68 725.104
L758.376 729.688
L765.072 730.895
L771.768 729.447
L778.464 729.688
L785.16 727.275
L791.856 724.38
L798.552 725.345
L805.248 719.071
L811.944 720.277
L818.64 728.723
L825.336 730.171
L832.032 724.621
L838.728 727.758
L845.424 727.758
L852.12 730.654
L858.816 730.895
L865.512 728.241
L872.208 727.034
L878.904 726.793
L885.6 728.241
L892.296 729.93
L898.992 727.275
L905.688 726.551
L912.384 721.484
L919.08 726.31
L925.776 725.345
L932.472 717.14
L939.168 713.521
L945.864 717.864
L952.56 716.899
L959.256 708.936
L965.952 711.831
L972.648 714.244
L979.344 713.279
L986.04 717.623
L992.736 720.519
L999.432 722.208
L1006.13 704.833
L1012.82 721.001
L1019.52 721.001
L1026.22 710.866
L1032.91 715.451
L1039.61 713.038
L1046.3 710.142
L1053 711.831
L1059.7 707.97
L1066.39 709.177
L1073.09 704.592
L1079.78 694.457
L1086.48 683.115
L1093.18 621.822
L1099.87 541.223
L1106.57 389.679
L1113.26 728.482
L1119.96 727.999
L1126.66 726.551
L1133.35 729.93
L1140.05 727.758
L1146.74 725.345
L1153.44 730.412
L1160.14 732.343
L1166.83 729.688
L1173.53 731.378
L1180.22 731.378
L1186.92 731.86
L1193.62 729.447
L1207.01 728.482
L1213.7 728.482
L1220.4 730.412
L1227.1 728.965
L1233.79 729.206
L1240.49 725.827
L1247.18 719.071
L1253.88 716.899
L1260.58 723.656
L1267.27 727.758
L1273.97 724.862
L1280.66 726.551
L1287.36 726.551
L1294.06 728.241
L1300.75 726.31
L1307.45 729.447
L1314.14 729.206
L1320.84 731.378
L1327.54 728.482
L1334.23 728.965
L1340.93 724.621
L1347.62 722.208
L1354.32 722.449
L1361.02 727.034
L1367.71 727.275
L1374.41 727.999
L1381.1 727.517
L1387.8 722.69
L1394.5 719.071
L1401.19 709.418
L1407.89 713.279
L1414.58 712.797
L1421.28 710.866
L1427.98 706.764
L1434.67 705.799
L1441.37 714.244
L1448.06 714.968
L1454.76 717.864
L1461.46 710.383
L1468.15 714.968
L1474.85 719.071
L1481.54 712.797
L1488.24 712.555
L1494.94 712.073
L1501.63 708.212
L1508.33 712.314
L1515.02 700.248
L1521.72 703.385
L1528.42 691.078
L1535.11 672.015
L1541.81 622.546
L1548.5 214.244
L1548.5 214.244" style="fill:none;stroke:#000000;stroke-linecap:square;stroke-width:3.0;"/>
   </g>
   <g id="matplotlib.axis_1">
    <g id="xtick_1">
     <g id="line2d_3">
      <path clip-path="url(#pb795613d17)" d="
M216 735.48
L216 81.72" style="fill:none;stroke:#000000;stroke-dasharray:1.000000,3.000000;stroke-dashoffset:0.0;stroke-width:0.5;"/>
     </g>
     <g id="line2d_4">
      <defs>
       <path d="
M0 0
L0 -4" id="m93b0483c22" style="stroke:#000000;stroke-width:0.5;"/>
      </defs>
      <g>
       <use style="stroke:#000000;stroke-width:0.5;" x="216.0" xlink:href="#m93b0483c22" y="735.48"/>
      </g>
     </g>
     <g id="line2d_5">
      <defs>
       <path d="
M0 0
L0 4" id="m741efc42ff" style="stroke:#000000;stroke-width:0.5;"/>
      </defs>
      <g>
       <use style="stroke:#000000;stroke-width:0.5;" x="216.0" xlink:href="#m741efc42ff" y="81.72"/>
      </g>
     </g>
     <g id="text_1">
      <!-- 0 -->
      <defs>
       <path d="
M31.7812 66.4062
Q24.1719 66.4062 20.3281 58.9062
Q16.5 51.4219 16.5 36.375
Q16.5 21.3906 20.3281 13.8906
Q24.1719 6.39062 31.7812 6.39062
Q39.4531 6.39062 43.2812 13.8906
Q47.125 21.3906 47.125 36.375
Q47.125 51.4219 43.2812 58.9062
Q39.4531 66.4062 31.7812 66.4062
M31.7812 74.2188
Q44.0469 74.2188 50.5156 64.5156
Q56.9844 54.8281 56.9844 36.375
Q56.9844 17.9688 50.5156 8.26562
Q44.0469 -1.42188 31.7812 -1.42188
Q19.5312 -1.42188 13.0625 8.26562
Q6.59375 17.9688 6.59375 36.375
Q6.59375 54.8281 13.0625 64.5156
Q19.5312 74.2188 31.7812 74.2188" id="DejaVuSans-30"/>
      </defs>
      <g transform="translate(212.9765625 748.598125)scale(0.12 -0.12)">
       <use xlink:href="#DejaVuSans-30"/>
      </g>
     </g>
    </g>
    <g id="xtick_2">
     <g id="line2d_6">
      <path clip-path="url(#pb795613d17)" d="
M550.8 735.48
L550.8 81.72" style="fill:none;stroke:#000000;stroke-dasharray:1.000000,3.000000;stroke-dashoffset:0.0;stroke-width:0.5;"/>
     </g>
     <g id="line2d_7">
      <g>
       <use style="stroke:#000000;stroke-width:0.5;" x="550.8" xlink:href="#m93b0483c22" y="735.48"/>
      </g>
     </g>
     <g id="line2d_8">
      <g>
       <use style="stroke:#000000;stroke-width:0.5;" x="550.8" xlink:href="#m741efc42ff" y="81.72"/>
      </g>
     </g>
     <g id="text_2">
      <!-- 50 -->
      <defs>
       <path d="
M10.7969 72.9062
L49.5156 72.9062
L49.5156 64.5938
L19.8281 64.5938
L19.8281 46.7344
Q21.9688 47.4688 24.1094 47.8281
Q26.2656 48.1875 28.4219 48.1875
Q40.625 48.1875 47.75 41.5
Q54.8906 34.8125 54.8906 23.3906
Q54.8906 11.625 47.5625 5.09375
Q40.2344 -1.42188 26.9062 -1.42188
Q22.3125 -1.42188 17.5469 -0.640625
Q12.7969 0.140625 7.71875 1.70312
L7.71875 11.625
Q12.1094 9.23438 16.7969 8.0625
Q21.4844 6.89062 26.7031 6.89062
Q35.1562 6.89062 40.0781 11.3281
Q45.0156 15.7656 45.0156 23.3906
Q45.0156 31 40.0781 35.4375
Q35.1562 39.8906 26.7031 39.8906
Q22.75 39.8906 18.8125 39.0156
Q14.8906 38.1406 10.7969 36.2812
z
" id="DejaVuSans-35"/>
      </defs>
      <g transform="translate(544.0265625 748.598125)scale(0.12 -0.12)">
       <use xlink:href="#DejaVuSans-35"/>
       <use x="63.623046875" xlink:href="#DejaVuSans-30"/>
      </g>
     </g>
    </g>
    <g id="xtick_3">
     <g id="line2d_9">
      <path clip-path="url(#pb795613d17)" d="
M885.6 735.48
L885.6 81.72" style="fill:none;stroke:#000000;stroke-dasharray:1.000000,3.000000;stroke-dashoffset:0.0;stroke-width:0.5;"/>
     </g>
     <g id="line2d_10">
      <g>
       <use style="stroke:#000000;stroke-width:0.5;" x="885.6" xlink:href="#m93b0483c22" y="735.48"/>
      </g>
     </g>
     <g id="line2d_11">
      <g>
       <use style="stroke:#000000;stroke-width:0.5;" x="885.6" xlink:href="#m741efc42ff" y="81.72"/>
      </g>
     </g>
     <g id="text_3">
      <!-- 100 -->
      <defs>
       <path d="
M12.4062 8.29688
L28.5156 8.29688
L28.5156 63.9219
L10.9844 60.4062
L10.9844 69.3906
L28.4219 72.9062
L38.2812 72.9062
L38.2812 8.29688
L54.3906 8.29688
L54.3906 0
L12.4062 0
z
" id="DejaVuSans-31"/>
      </defs>
      <g transform="translate(875.205 748.598125)scale(0.12 -0.12)">
       <use xlink:href="#DejaVuSans-31"/>
       <use x="63.623046875" xlink:href="#DejaVuSans-30"/>
       <use x="127.24609375" xlink:href="#DejaVuSans-30"/>
      </g>
     </g>
    </g>
    <g id="xtick_4">
     <g id="line2d_12">
      <path clip-path="url(#pb795613d17)" d="
M1220.4 735.48
L1220.4 81.72" style="fill:none;stroke:#000000;stroke-dasharray:1.000000,3.000000;stroke-dashoffset:0.0;stroke-width:0.5;"/>
     </g>
     <g id="line2d_13">
      <g>
       <use style="stroke:#000000;stroke-width:0.5;" x="1220.4" xlink:href="#m93b0483c22" y="735.48"/>
      </g>
     </g>
     <g id="line2d_14">
      <g>
       <use style="stroke:#000000;stroke-width:0.5;" x="1220.4" xlink:href="#m741efc42ff" y="81.72"/>
      </g>
     </g>
     <g id="text_4">
      <!-- 150 -->
      <g transform="translate(1210.005 748.598125)scale(0.12 -0.12)">
       <use xlink:href="#DejaVuSans-31"/>
       <use x="63.623046875" xlink:href="#DejaVuSans-35"/>
       <use x="127.24609375" xlink:href="#DejaVuSans-30"/>
      </g>
     </g>
    </g>
    <g id="xtick_5">
     <g id="line2d_15">
      <path clip-path="url(#pb795613d17)" d="
M1555.2 735.48
L1555.2 81.72" style="fill:none;stroke:#000000;stroke-dasharray:1.000000,3.000000;stroke-dashoffset:0.0;stroke-width:0.5;"/>
     </g>
     <g id="line2d_16">
      <g>
       <use style="stroke:#000000;stroke-width:0.5;" x="1555.2" xlink:href="#m93b0483c22" y="735.48"/>
      </g>
     </g>
     <g id="line2d_17">
      <g>
       <use style="stroke:#000000;stroke-width:0.5;" x="1555.2" xlink:href="#m741efc42ff" y="81.72"/>
      </g>
     </g>
     <g id="text_5">
      <!-- 200 -->
      <defs>
       <path d="
M19.1875 8.29688
L53.6094 8.29688
L53.6094 0
L7.32812 0
L7.32812 8.29688
Q12.9375 14.1094 22.625 23.8906
Q32.3281 33.6875 34.8125 36.5312
Q39.5469 41.8438 41.4219 45.5312
Q43.3125 49.2188 43.3125 52.7812
Q43.3125 58.5938 39.2344 62.25
Q35.1562 65.9219 28.6094 65.9219
Q23.9688 65.9219 18.8125 64.3125
Q13.6719 62.7031 7.8125 59.4219
L7.8125 69.3906
Q13.7656 71.7812 18.9375 73
Q24.125 74.2188 28.4219 74.2188
Q39.75 74.2188 46.4844 68.5469
Q53.2188 62.8906 53.2188 53.4219
Q53.2188 48.9219 51.5312 44.8906
Q49.8594 40.875 45.4062 35.4062
Q44.1875 33.9844 37.6406 27.2188
Q31.1094 20.4531 19.1875 8.29688" id="DejaVuSans-32"/>
      </defs>
      <g transform="translate(1544.585625 748.598125)scale(0.12 -0.12)">
       <use xlink:href="#DejaVuSans-32"/>
       <use x="63.623046875" xlink:href="#DejaVuSans-30"/>
       <use x="127.24609375" xlink:href="#DejaVuSans-30"/>
      </g>
     </g>
    </g>
   </g>
   <g id="matplotlib.axis_2">
    <g id="ytick_1">
     <g id="line2d_18">
      <path clip-path="url(#pb795613d17)" d="
M216 735.48
L1555.2 735.48" style="fill:none;stroke:#000000;stroke-dasharray:1.000000,3.000000;stroke-dashoffset:0.0;stroke-width:0.5;"/>
     </g>
     <g id="line2d_19">
      <defs>
       <path d="
M0 0
L4 0" id="m728421d6d4" style="stroke:#000000;stroke-width:0.5;"/>
      </defs>
      <g>
       <use style="stroke:#000000;stroke-width:0.5;" x="216.0" xlink:href="#m728421d6d4" y="735.48"/>
      </g>
     </g>
     <g id="line2d_20">
      <defs>
       <path d="
M0 0
L-4 0" id="mcb0005524f" style="stroke:#000000;stroke-width:0.5;"/>
      </defs>
      <g>
       <use style="stroke:#000000;stroke-width:0.5;" x="1555.2" xlink:href="#mcb0005524f" y="735.48"/>
      </g>
     </g>
     <g id="text_6">
      <!-- 0.00 -->
      <defs>
       <path d="
M10.6875 12.4062
L21 12.4062
L21 0
L10.6875 0
z
" id="DejaVuSans-2e"/>
      </defs>
      <g transform="translate(186.869375 738.79125)scale(0.12 -0.12)">
       <use xlink:href="#DejaVuSans-30"/>
       <use x="63.623046875" xlink:href="#DejaVuSans-2e"/>
       <use x="95.41015625" xlink:href="#DejaVuSans-30"/>
       <use x="159.033203125" xlink:href="#DejaVuSans-30"/>
      </g>
     </g>
    </g>
    <g id="ytick_2">
     <g id="line2d_21">
      <path clip-path="url(#pb795613d17)" d="
M216 662.84
L1555.2 662.84" style="fill:none;stroke:#000000;stroke-dasharray:1.000000,3.000000;stroke-dashoffset:0.0;stroke-width:0.5;"/>
     </g>
     <g id="line2d_22">
      <g>
       <use style="stroke:#000000;stroke-width:0.5;" x="216.0" xlink:href="#m728421d6d4" y="662.84"/>
      </g>
     </g>
     <g id="line2d_23">
      <g>
       <use style="stroke:#000000;stroke-width:0.5;" x="1555.2" xlink:href="#mcb0005524f" y="662.84"/>
      </g>
     </g>
     <g id="text_7">
      <!-- 0.02 -->
      <g transform="translate(187.274375 666.15125)scale(0.12 -0.12)">
       <use xlink:href="#DejaVuSans-30"/>
       <use x="63.623046875" xlink:href="#DejaVuSans-2e"/>
       <use x="95.41015625" xlink:href="#DejaVuSans-30"/>
       <use x="159.033203125" xlink:href="#DejaVuSans-32"/>
      </g>
     </g>
    </g>
    <g id="ytick_3">
     <g id="line2d_24">
      <path clip-path="url(#pb795613d17)" d="
M216 590.2
L1555.2 590.2" style="fill:none;stroke:#000000;stroke-dasharray:1.000000,3.000000;stroke-dashoffset:0.0;stroke-width:0.5;"/>
     </g>
     <g id="line2d_25">
      <g>
       <use style="stroke:#000000;stroke-width:0.5;" x="216.0" xlink:href="#m728421d6d4" y="590.2"/>
      </g>
     </g>
     <g id="line2d_26">
      <g>
       <use style="stroke:#000000;stroke-width:0.5;" x="1555.2" xlink:href="#mcb0005524f" y="590.2"/>
      </g>
     </g>
     <g id="text_8">
      <!-- 0.04 -->
      <defs>
       <path d="
M37.7969 64.3125
L12.8906 25.3906
L37.7969 25.3906
z

M35.2031 72.9062
L47.6094 72.9062
L47.6094 25.3906
L58.0156 25.3906
L58.0156 17.1875
L47.6094 17.1875
L47.6094 0
L37.7969 0
L37.7969 17.1875
L4.89062 17.1875
L4.89062 26.7031
z
" id="DejaVuSans-34"/>
      </defs>
      <g transform="translate(186.745625 593.51125)scale(0.12 -0.12)">
       <use xlink:href="#DejaVuSans-30"/>
       <use x="63.623046875" xlink:href="#DejaVuSans-2e"/>
       <use x="95.41015625" xlink:href="#DejaVuSans-30"/>
       <use x="159.033203125" xlink:href="#DejaVuSans-34"/>
      </g>
     </g>
    </g>
    <g id="ytick_4">
     <g id="line2d_27">
      <path clip-path="url(#pb795613d17)" d="
M216 517.56
L1555.2 517.56" style="fill:none;stroke:#000000;stroke-dasharray:1.000000,3.000000;stroke-dashoffset:0.0;stroke-width:0.5;"/>
     </g>
     <g id="line2d_28">
      <g>
       <use style="stroke:#000000;stroke-width:0.5;" x="216.0" xlink:href="#m728421d6d4" y="517.56"/>
      </g>
     </g>
     <g id="line2d_29">
      <g>
       <use style="stroke:#000000;stroke-width:0.5;" x="1555.2" xlink:href="#mcb0005524f" y="517.56"/>
      </g>
     </g>
     <g id="text_9">
      <!-- 0.06 -->
      <defs>
       <path d="
M33.0156 40.375
Q26.375 40.375 22.4844 35.8281
Q18.6094 31.2969 18.6094 23.3906
Q18.6094 15.5312 22.4844 10.9531
Q26.375 6.39062 33.0156 6.39062
Q39.6562 6.39062 43.5312 10.9531
Q47.4062 15.5312 47.4062 23.3906
Q47.4062 31.2969 43.5312 35.8281
Q39.6562 40.375 33.0156 40.375
M52.5938 71.2969
L52.5938 62.3125
Q48.875 64.0625 45.0938 64.9844
Q41.3125 65.9219 37.5938 65.9219
Q27.8281 65.9219 22.6719 59.3281
Q17.5312 52.7344 16.7969 39.4062
Q19.6719 43.6562 24.0156 45.9219
Q28.375 48.1875 33.5938 48.1875
Q44.5781 48.1875 50.9531 41.5156
Q57.3281 34.8594 57.3281 23.3906
Q57.3281 12.1562 50.6875 5.35938
Q44.0469 -1.42188 33.0156 -1.42188
Q20.3594 -1.42188 13.6719 8.26562
Q6.98438 17.9688 6.98438 36.375
Q6.98438 53.6562 15.1875 63.9375
Q23.3906 74.2188 37.2031 74.2188
Q40.9219 74.2188 44.7031 73.4844
Q48.4844 72.75 52.5938 71.2969" id="DejaVuSans-36"/>
      </defs>
      <g transform="translate(186.828125 520.87125)scale(0.12 -0.12)">
       <use xlink:href="#DejaVuSans-30"/>
       <use x="63.623046875" xlink:href="#DejaVuSans-2e"/>
       <use x="95.41015625" xlink:href="#DejaVuSans-30"/>
       <use x="159.033203125" xlink:href="#DejaVuSans-36"/>
      </g>
     </g>
    </g>
    <g id="ytick_5">
     <g id="line2d_30">
      <path clip-path="url(#pb795613d17)" d="
M216 444.92
L1555.2 444.92" style="fill:none;stroke:#000000;stroke-dasharray:1.000000,3.000000;stroke-dashoffset:0.0;stroke-width:0.5;"/>
     </g>
     <g id="line2d_31">
      <g>
       <use style="stroke:#000000;stroke-width:0.5;" x="216.0" xlink:href="#m728421d6d4" y="444.92"/>
      </g>
     </g>
     <g id="line2d_32">
      <g>
       <use style="stroke:#000000;stroke-width:0.5;" x="1555.2" xlink:href="#mcb0005524f" y="444.92"/>
      </g>
     </g>
     <g id="text_10">
      <!-- 0.08 -->
      <defs>
       <path d="
M31.7812 34.625
Q24.75 34.625 20.7188 30.8594
Q16.7031 27.0938 16.7031 20.5156
Q16.7031 13.9219 20.7188 10.1562
Q24.75 6.39062 31.7812 6.39062
Q38.8125 6.39062 42.8594 10.1719
Q46.9219 13.9688 46.9219 20.5156
Q46.9219 27.0938 42.8906 30.8594
Q38.875 34.625 31.7812 34.625
M21.9219 38.8125
Q15.5781 40.375 12.0312 44.7188
Q8.5 49.0781 8.5 55.3281
Q8.5 64.0625 14.7188 69.1406
Q20.9531 74.2188 31.7812 74.2188
Q42.6719 74.2188 48.875 69.1406
Q55.0781 64.0625 55.0781 55.3281
Q55.0781 49.0781 51.5312 44.7188
Q48 40.375 41.7031 38.8125
Q48.8281 37.1562 52.7969 32.3125
Q56.7812 27.4844 56.7812 20.5156
Q56.7812 9.90625 50.3125 4.23438
Q43.8438 -1.42188 31.7812 -1.42188
Q19.7344 -1.42188 13.25 4.23438
Q6.78125 9.90625 6.78125 20.5156
Q6.78125 27.4844 10.7812 32.3125
Q14.7969 37.1562 21.9219 38.8125
M18.3125 54.3906
Q18.3125 48.7344 21.8438 45.5625
Q25.3906 42.3906 31.7812 42.3906
Q38.1406 42.3906 41.7188 45.5625
Q45.3125 48.7344 45.3125 54.3906
Q45.3125 60.0625 41.7188 63.2344
Q38.1406 66.4062 31.7812 66.4062
Q25.3906 66.4062 21.8438 63.2344
Q18.3125 60.0625 18.3125 54.3906" id="DejaVuSans-38"/>
      </defs>
      <g transform="translate(186.89375 448.23125)scale(0.12 -0.12)">
       <use xlink:href="#DejaVuSans-30"/>
       <use x="63.623046875" xlink:href="#DejaVuSans-2e"/>
       <use x="95.41015625" xlink:href="#DejaVuSans-30"/>
       <use x="159.033203125" xlink:href="#DejaVuSans-38"/>
      </g>
     </g>
    </g>
    <g id="ytick_6">
     <g id="line2d_33">
      <path clip-path="url(#pb795613d17)" d="
M216 372.28
L1555.2 372.28" style="fill:none;stroke:#000000;stroke-dasharray:1.000000,3.000000;stroke-dashoffset:0.0;stroke-width:0.5;"/>
     </g>
     <g id="line2d_34">
      <g>
       <use style="stroke:#000000;stroke-width:0.5;" x="216.0" xlink:href="#m728421d6d4" y="372.28"/>
      </g>
     </g>
     <g id="line2d_35">
      <g>
       <use style="stroke:#000000;stroke-width:0.5;" x="1555.2" xlink:href="#mcb0005524f" y="372.28"/>
      </g>
     </g>
     <g id="text_11">
      <!-- 0.10 -->
      <g transform="translate(186.869375 375.59125)scale(0.12 -0.12)">
       <use xlink:href="#DejaVuSans-30"/>
       <use x="63.623046875" xlink:href="#DejaVuSans-2e"/>
       <use x="95.41015625" xlink:href="#DejaVuSans-31"/>
       <use x="159.033203125" xlink:href="#DejaVuSans-30"/>
      </g>
     </g>
    </g>
    <g id="ytick_7">
     <g id="line2d_36">
      <path clip-path="url(#pb795613d17)" d="
M216 299.64
L1555.2 299.64" style="fill:none;stroke:#000000;stroke-dasharray:1.000000,3.000000;stroke-dashoffset:0.0;stroke-width:0.5;"/>
     </g>
     <g id="line2d_37">
      <g>
       <use style="stroke:#000000;stroke-width:0.5;" x="216.0" xlink:href="#m728421d6d4" y="299.64"/>
      </g>
     </g>
     <g id="line2d_38">
      <g>
       <use style="stroke:#000000;stroke-width:0.5;" x="1555.2" xlink:href="#mcb0005524f" y="299.64"/>
      </g>
     </g>
     <g id="text_12">
      <!-- 0.12 -->
      <g transform="translate(187.274375 302.95125)scale(0.12 -0.12)">
       <use xlink:href="#DejaVuSans-30"/>
       <use x="63.623046875" xlink:href="#DejaVuSans-2e"/>
       <use x="95.41015625" xlink:href="#DejaVuSans-31"/>
       <use x="159.033203125" xlink:href="#DejaVuSans-32"/>
      </g>
     </g>
    </g>
    <g id="ytick_8">
     <g id="line2d_39">
      <path clip-path="url(#pb795613d17)" d="
M216 227
L1555.2 227" style="fill:none;stroke:#000000;stroke-dasharray:1.000000,3.000000;stroke-dashoffset:0.0;stroke-width:0.5;"/>
     </g>
     <g id="line2d_40">
      <g>
       <use style="stroke:#000000;stroke-width:0.5;" x="216.0" xlink:href="#m728421d6d4" y="227.0"/>
      </g>
     </g>
     <g id="line2d_41">
      <g>
       <use style="stroke:#000000;stroke-width:0.5;" x="1555.2" xlink:href="#mcb0005524f" y="227.0"/>
      </g>
     </g>
     <g id="text_13">
      <!-- 0.14 -->
      <g transform="translate(186.745625 230.31125)scale(0.12 -0.12)">
       <use xlink:href="#DejaVuSans-30"/>
       <use x="63.623046875" xlink:href="#DejaVuSans-2e"/>
       <use x="95.41015625" xlink:href="#DejaVuSans-31"/>
       <use x="159.033203125" xlink:href="#DejaVuSans-34"/>
      </g>
     </g>
    </g>
    <g id="ytick_9">
     <g id="line2d_42">
      <path clip-path="url(#pb795613d17)" d="
M216 154.36
L1555.2 154.36" style="fill:none;stroke:#000000;stroke-dasharray:1.000000,3.000000;stroke-dashoffset:0.0;stroke-width:0.5;"/>
     </g>
     <g id="line2d_43">
      <g>
       <use style="stroke:#000000;stroke-width:0.5;" x="216.0" xlink:href="#m728421d6d4" y="154.36"/>
      </g>
     </g>
     <g id="line2d_44">
      <g>
       <use style="stroke:#000000;stroke-width:0.5;" x="1555.2" xlink:href="#mcb0005524f" y="154.36"/>
      </g>
     </g>
     <g id="text_14">
      <!-- 0.16 -->
      <g transform="translate(186.828125 157.67125)scale(0.12 -0.12)">
       <use xlink:href="#DejaVuSans-30"/>
       <use x="63.623046875" xlink:href="#DejaVuSans-2e"/>
       <use x="95.41015625" xlink:href="#DejaVuSans-31"/>
       <use x="159.033203125" xlink:href="#DejaVuSans-36"/>
      </g>
     </g>
    </g>
    <g id="ytick_10">
     <g id="line2d_45">
      <path clip-path="url(#pb795613d17)" d="
M216 81.72
L1555.2 81.72" style="fill:none;stroke:#000000;stroke-dasharray:1.000000,3.000000;stroke-dashoffset:0.0;stroke-width:0.5;"/>
     </g>
     <g id="line2d_46">
      <g>
       <use style="stroke:#000000;stroke-width:0.5;" x="216.0" xlink:href="#m728421d6d4" y="81.72"/>
      </g>
     </g>
     <g id="line2d_47">
      <g>
       <use style="stroke:#000000;stroke-width:0.5;" x="1555.2" xlink:href="#mcb0005524f" y="81.72"/>
      </g>
     </g>
     <g id="text_15">
      <!-- 0.18 -->
      <g transform="translate(186.89375 85.03125)scale(0.12 -0.12)">
       <use xlink:href="#DejaVuSans-30"/>
       <use x="63.623046875" xlink:href="#DejaVuSans-2e"/>
       <use x="95.41015625" xlink:href="#DejaVuSans-31"/>
       <use x="159.033203125" xlink:href="#DejaVuSans-38"/>
      </g>
     </g>
    </g>
   </g>
   <g id="patch_3">
    <path d="
M216 81.72
L1555.2 81.72" style="fill:none;stroke:#000000;"/>
   </g>
   <g id="patch_4">
    <path d="
M1555.2 735.48
L1555.2 81.72" style="fill:none;stroke:#000000;"/>
   </g>
   <g id="patch_5">
    <path d="
M216 735.48
L1555.2 735.48" style="fill:none;stroke:#000000;"/>
   </g>
   <g id="patch_6">
    <path d="
M216 735.48
L216 81.72" style="fill:none;stroke:#000000;"/>
   </g>
  </g>
 </g>
 <defs>
  <clipPath id="pb795613d17">
   <rect height="653.76" width="1339.2" x="216.0" y="81.72"/>
  </clipPath>
 </defs>
</svg>
