<?xml version="1.0" encoding="utf-8" standalone="no"?>
<!DOCTYPE svg PUBLIC "-//W3C//DTD SVG 1.1//EN"
  "http://www.w3.org/Graphics/SVG/1.1/DTD/svg11.dtd">
<!-- Created with matplotlib (http://matplotlib.org/) -->
<svg height="817pt" version="1.1" viewBox="0 0 1728 817" width="1728pt" xmlns="http://www.w3.org/2000/svg" xmlns:xlink="http://www.w3.org/1999/xlink">
 <defs>
  <style type="text/css">
*{stroke-linecap:butt;stroke-linejoin:round;}
  </style>
 </defs>
 <g id="figure_1">
  <g id="patch_1">
   <path d="
M0 817.2
L1728 817.2
L1728 0
L0 0
z
" style="fill:#ffffff;"/>
  </g>
  <g id="axes_1">
   <g id="patch_2">
    <path d="
M216 735.48
L1555.2 735.48
L1555.2 81.72
L216 81.72
z
" style="fill:#ffffff;"/>
   </g>
   <g id="line2d_1">
    <path clip-path="url(#pb795613d17)" d="
M245.76 561.036
L246.37 219.803
L246.98 200.751
L248.2 309.087
L248.81 339.667
L249.42 376.811
L250.031 386.897
L250.641 376.704
L251.251 401.146
L251.861 368.646
L252.471 408.298
L253.081 431.673
L253.691 434.394
L254.301 442.773
L255.521 469.03
L256.131 466.415
L256.741 484.987
L257.352 472.125
L257.962 480.664
L258.572 473.299
L259.792 510.71
L260.402 462.199
L261.012 495.981
L261.622 521.544
L262.232 515.833
L262.842 502.118
L263.452 523.358
L264.062 520.209
L264.672 528.321
L265.283 526.774
L265.893 528.215
L266.503 540.649
L267.113 540.009
L267.723 530.616
L268.333 540.169
L268.943 503.132
L269.553 533.765
L270.163 532.164
L270.773 542.25
L271.383 546.84
L271.993 546.199
L272.604 551.056
L273.214 564.505
L273.824 560.182
L274.434 535.152
L275.044 565.679
L275.654 565.945
L276.264 569.308
L276.874 575.178
L277.484 564.931
L278.704 591.082
L279.314 583.397
L279.924 566.372
L280.535 601.862
L281.145 597.806
L281.755 612.375
L282.365 623.049
L282.975 613.923
L283.585 623.316
L284.195 626.518
L284.805 622.035
L285.415 621.181
L286.025 637.458
L286.635 641.514
L287.245 655.336
L287.856 658.592
L288.466 660.246
L289.686 669.479
L290.296 661.313
L290.906 671.88
L291.516 652.027
L292.126 672.36
L293.346 685.756
L293.956 685.596
L294.566 694.401
L295.176 696.589
L295.787 692.747
L296.397 695.682
L297.007 664.515
L297.617 694.348
L298.227 694.294
L298.837 692.48
L299.447 688.904
L300.057 692
L300.667 691.146
L301.277 695.682
L301.887 698.724
L302.497 663.822
L303.108 687.784
L303.718 692.267
L304.328 694.294
L304.938 690.559
L305.548 685.916
L306.158 696.643
L306.768 685.809
L307.378 679.672
L307.988 690.025
L308.598 644.022
L309.208 674.175
L309.818 680.472
L310.428 670.332
L311.039 671.667
L311.649 680.526
L312.259 667.13
L312.869 661.153
L313.479 666.917
L314.089 638.419
L314.699 668.571
L315.309 679.832
L315.919 665.263
L316.529 669.905
L317.139 666.864
L317.749 666.543
L318.36 664.782
L318.97 674.548
L319.58 659.232
L320.19 670.172
L320.8 662.594
L321.41 662.914
L322.02 664.195
L322.63 659.712
L323.24 661.153
L324.46 652.294
L325.07 666.65
L325.68 654.002
L326.291 654.376
L326.901 654.055
L327.511 660.406
L328.121 649.306
L328.731 656.777
L329.341 648.665
L329.951 643.755
L330.561 645.837
L331.171 632.602
L331.781 634.683
L332.391 635.59
L333.001 624.116
L333.612 636.551
L334.222 638.579
L334.832 605.011
L335.442 597.966
L336.052 615.897
L336.662 615.417
L337.882 609.6
L338.492 603.73
L339.712 621.501
L340.322 610.828
L340.932 608.8
L341.543 616.485
L342.153 621.501
L342.763 608.479
L343.373 619.847
L343.983 621.394
L344.593 632.281
L345.203 613.549
L345.813 608.479
L346.423 609.867
L347.033 609.12
L347.643 610.614
L348.253 625.557
L348.864 617.499
L349.474 614.403
L350.084 616.645
L350.694 613.336
L351.304 605.277
L351.914 602.662
L352.524 598.873
L353.134 602.822
L353.744 599.407
L354.354 591.989
L354.964 599.46
L355.574 596.205
L356.184 602.129
L356.795 597.806
L358.015 592.469
L358.625 591.348
L359.235 586.759
L359.845 591.615
L360.455 600.741
L361.065 607.038
L361.675 595.938
L362.285 604.797
L362.895 615.364
L363.505 601.702
L364.116 594.337
L364.726 594.017
L365.336 589.694
L365.946 597.326
L366.556 600.688
L367.166 592.789
L367.776 596.151
L368.386 585.371
L368.996 560.075
L369.606 568.881
L370.216 566.853
L370.826 533.978
L371.436 524.265
L372.657 571.069
L373.267 544.545
L373.877 530.669
L374.487 537.554
L375.097 526.293
L375.707 534.672
L376.317 531.203
L376.927 537.447
L377.537 537.661
L378.147 540.916
L379.368 531.363
L379.978 545.933
L380.588 536.22
L381.198 541.983
L382.418 238.429
L383.028 294.892
L383.638 310.848
L384.858 421.64
L385.468 439.144
L386.078 445.815
L386.688 433.38
L387.299 433.007
L387.909 428.097
L388.519 428.044
L389.129 420.999
L389.739 470.631
L390.349 487.869
L390.959 476.501
L391.569 482.425
L392.179 477.996
L392.789 468.923
L394.009 496.194
L394.62 501.477
L395.23 504.306
L395.84 496.781
L396.45 464.547
L397.06 497.315
L397.67 495.02
L398.89 521.17
L399.5 521.01
L400.72 541.183
L401.33 539.422
L401.94 534.939
L402.551 537.981
L403.161 532.537
L403.771 537.767
L404.381 540.436
L404.991 546.52
L405.601 535.099
L406.211 545.292
L406.821 542.624
L407.431 544.705
L408.041 555.432
L408.651 557.353
L409.261 566.479
L409.872 560.769
L410.482 574.324
L411.092 569.895
L411.702 590.068
L412.312 596.312
L412.922 585.638
L413.532 597.859
L414.142 598.713
L414.752 600.314
L415.972 619.473
L416.582 619.046
L417.192 624.596
L417.803 631.801
L418.413 629.88
L419.023 634.363
L419.633 646.157
L420.243 642.154
L422.073 663.288
L422.683 660.246
L423.293 668.304
L423.903 671.933
L424.513 671.346
L425.124 675.829
L425.734 682.714
L426.344 687.036
L426.954 686.076
L427.564 693.814
L428.174 694.988
L428.784 700.272
L429.394 701.499
L430.004 707.903
L430.614 700.538
L431.224 700.859
L431.834 707.903
L432.444 705.768
L433.055 705.021
L433.665 695.895
L434.275 691.039
L435.495 685.009
L436.105 679.191
L436.715 684.848
L437.325 697.497
L437.935 699.631
L438.545 695.308
L439.155 702.94
L439.765 694.615
L440.376 691.039
L440.986 699.098
L441.596 704.861
L442.206 701.126
L442.816 699.791
L443.426 702.94
L444.036 697.336
L444.646 702.727
L445.256 700.699
L445.866 697.016
L446.476 689.438
L447.086 691.626
L447.696 690.559
L448.307 685.596
L448.917 687.197
L449.527 687.09
L450.137 691.146
L450.747 684.421
L451.357 682.233
L451.967 681.006
L452.577 681.059
L453.187 675.883
L453.797 671.987
L454.407 678.391
L455.017 677.911
L455.628 676.149
L456.238 671.507
L456.848 670.439
L457.458 658.485
L458.068 657.524
L458.678 650.586
L459.288 655.603
L459.898 655.923
L460.508 658.165
L461.118 653.842
L461.728 652.454
L462.338 645.25
L462.948 649.733
L463.559 651.173
L464.169 644.769
L464.779 646.797
L465.389 649.946
L466.609 643.915
L467.219 645.73
L467.829 653.468
L468.439 671.026
L469.049 659.872
L469.659 659.659
L470.269 660.459
L470.88 639.219
L471.49 644.929
L472.1 637.832
L472.71 625.824
L473.32 625.77
L473.93 622.782
L474.54 623.743
L475.15 627.051
L475.76 633.295
L476.37 620.54
L476.98 622.142
L477.59 628.919
L478.2 627.959
L478.811 621.021
L479.421 616.805
L480.031 614.937
L480.641 610.401
L481.251 617.392
L481.861 608.426
L482.471 602.983
L483.081 608.533
L483.691 603.196
L484.301 605.651
L484.911 606.665
L485.521 611.788
L486.132 605.437
L487.352 616.218
L487.962 609.173
L488.572 604.103
L489.182 612.429
L489.792 608.052
L490.402 619.9
L491.622 592.736
L492.232 584.838
L492.842 584.731
L493.452 575.605
L494.063 583.61
L494.673 580.355
L495.283 582.436
L495.893 572.403
L496.503 573.417
L497.723 580.568
L498.333 577.366
L498.943 578.7
L499.553 566.693
L500.163 560.022
L500.773 559.595
L501.384 547.64
L501.994 551.536
L502.604 549.455
L503.214 537.074
L503.824 534.565
L505.044 532.484
L505.654 541.717
L506.874 525.226
L507.484 530.349
L508.094 527.467
L508.704 529.175
L509.315 523.411
L509.925 524.906
L510.535 516.26
L511.145 524.212
L511.755 549.615
L512.365 546.84
L512.975 542.464
L513.585 529.495
L514.195 536.487
L514.805 528.908
L515.415 526.667
L516.025 522.451
L516.636 530.029
L517.246 395.65
L517.856 130.573
L518.466 169.104
L519.076 227.275
L519.686 267.461
L520.296 332.302
L520.906 371.634
L521.516 380.546
L522.126 378.732
L522.736 349.753
L523.956 379.799
L524.567 382.628
L525.177 371.794
L525.787 382.468
L526.397 381.454
L527.007 397.357
L527.617 381.881
L528.837 421.266
L529.447 413.581
L530.057 426.282
L530.667 413.314
L531.277 422.387
L531.888 423.561
L532.498 460.598
L533.108 485.627
L533.718 494.86
L534.328 490.537
L534.938 476.395
L535.548 475.381
L536.158 471.912
L536.768 480.504
L537.378 483.653
L537.988 485.841
L538.598 513.912
L539.208 534.512
L539.819 540.596
L540.429 515.193
L541.039 503.665
L541.649 511.937
L542.259 523.358
L542.869 506.974
L543.479 516.58
L544.089 534.725
L544.699 532.911
L545.309 530.403
L545.919 551.856
L546.529 534.939
L547.14 549.241
L547.75 560.555
L548.36 553.457
L548.97 558.261
L549.58 574.484
L550.19 569.681
L551.41 582.81
L552.02 593.643
L552.63 595.084
L553.85 615.631
L554.46 614.99
L555.681 620.914
L556.291 635.857
L556.901 637.458
L557.511 650.64
L558.121 644.929
L558.731 655.069
L559.341 653.682
L559.951 661.74
L560.561 654.589
L561.171 656.991
L561.781 667.878
L562.392 664.675
L563.002 679.939
L563.612 685.062
L564.222 693.014
L564.832 694.188
L566.052 698.937
L566.662 683.941
L567.272 690.826
L567.882 704.221
L569.102 697.07
L569.712 699.845
L570.323 690.559
L570.933 695.362
L571.543 682.02
L572.153 687.624
L572.763 680.579
L573.373 691.092
L573.983 681.486
L574.593 679.138
L575.203 691.092
L577.033 674.975
L577.644 680.152
L578.864 676.63
L579.474 680.953
L580.084 678.658
L580.694 680.366
L581.304 677.911
L581.914 668.144
L582.524 671.613
L583.134 668.251
L583.744 665.743
L584.354 666.437
L584.964 664.409
L585.575 670.706
L586.795 666.223
L587.405 669.639
L588.015 664.675
L588.625 670.759
L589.235 667.611
L589.845 659.872
L590.455 660.62
L591.065 647.971
L591.675 641.087
L592.285 636.604
L592.896 638.952
L593.506 630.68
L594.116 629.826
L594.726 626.464
L595.336 616.591
L595.946 625.77
L596.556 624.223
L597.166 620.434
L597.776 613.229
L598.386 622.622
L598.996 613.603
L599.606 607.465
L600.216 612.269
L600.827 603.516
L601.437 598.82
L602.047 602.182
L602.657 603.943
L603.267 601.061
L603.877 603.676
L604.487 601.115
L605.097 594.124
L605.707 599.087
L606.317 597.966
L606.927 608.906
L607.537 588.733
L608.148 587.079
L609.368 571.923
L609.978 600.848
L610.588 607.145
L611.198 590.815
L611.808 594.07
L612.418 592.256
L613.028 583.29
L613.638 576.566
L614.248 585.318
L614.858 570.161
L615.468 564.931
L616.079 572.99
L616.689 571.923
L617.299 566.479
L617.909 568.347
L618.519 561.569
L619.129 581.048
L620.349 567.813
L620.959 572.243
L621.569 584.571
L622.179 573.31
L622.789 579.074
L623.4 566.639
L624.01 591.989
L624.62 577.473
L625.23 574.804
L625.84 573.737
L626.45 572.189
L627.06 577.313
L627.67 579.661
L628.28 574.965
L628.89 580.355
L629.5 581.582
L630.11 580.248
L630.72 575.605
L631.331 554.098
L631.941 561.729
L632.551 560.609
L633.161 557.834
L633.771 562.583
L634.381 564.238
L634.991 562.85
L635.601 575.178
L636.211 572.883
L636.821 554.792
L637.431 554.845
L638.041 556.072
L638.652 546.626
L639.262 546.466
L639.872 547.16
L640.482 537.927
L641.092 538.034
L641.702 551.163
L642.312 532.804
L642.922 544.171
L643.532 548.708
L644.142 546.306
L644.752 547.374
L645.362 547.907
L645.972 546.093
L646.583 557.887
L647.193 554.151
L647.803 557.94
L648.413 564.238
L649.023 556.926
L649.633 561.623
L650.243 569.414
L650.853 559.488
L651.463 544.865
L652.073 559.221
L652.683 541.663
L653.293 356.905
L653.904 368.219
L654.514 389.085
L655.734 465.775
L656.344 498.916
L657.564 471.752
L658.174 486.534
L658.784 497.368
L659.394 491.017
L660.004 480.771
L660.614 488.616
L661.224 492.618
L662.445 480.237
L663.055 492.725
L663.665 487.068
L664.275 497.208
L664.885 491.017
L665.495 496.514
L666.105 494.913
L666.715 492.939
L667.325 483.279
L667.935 454.834
L668.545 462.412
L669.156 512.845
L669.766 521.063
L670.376 524.906
L670.986 526.293
L671.596 543.638
L672.206 526.24
L672.816 532.697
L673.426 543.745
L674.036 549.188
L674.646 557.46
L675.256 568.187
L675.866 569.948
L676.476 577.953
L677.087 578.007
L677.697 586.866
L678.307 603.516
L678.917 598.873
L679.527 606.718
L680.137 610.988
L680.747 610.401
L681.357 614.99
L681.967 618.459
L682.577 618.619
L683.797 634.576
L684.408 636.337
L685.018 636.924
L685.628 641.354
L686.238 653.522
L686.848 645.837
L687.458 644.236
L688.068 658.431
L688.678 658.965
L689.288 661.046
L689.898 661.046
L690.508 663.555
L691.118 672.2
L691.728 673.534
L692.339 680.472
L692.949 689.278
L693.559 688.05
L694.169 695.575
L694.779 697.443
L695.389 701.713
L695.999 696.589
L696.609 697.23
L697.219 709.024
L697.829 704.808
L698.439 704.648
L699.049 708.704
L699.66 708.65
L700.27 712.279
L700.88 718.096
L701.49 714.681
L702.1 712.546
L702.71 714.628
L703.32 710.892
L703.93 717.456
L704.54 713.667
L705.76 709.024
L706.37 712.973
L706.98 705.128
L707.591 706.302
L708.201 701.552
L708.811 710.411
L709.421 700.218
L710.031 705.181
L710.641 695.148
L711.251 693.814
L711.861 695.415
L712.471 703.153
L713.081 687.57
L713.691 695.629
L714.301 689.491
L714.912 697.977
L715.522 698.511
L716.132 687.25
L716.742 692.907
L717.352 688.958
L717.962 690.078
L718.572 692.213
L719.182 684.475
L719.792 681.806
L720.402 684.315
L721.012 677.857
L721.622 677.964
L722.232 674.922
L722.843 674.388
L723.453 678.017
L724.063 671.72
L725.283 663.395
L725.893 661.74
L726.503 665.476
L727.113 662.914
L727.723 654.269
L728.333 656.564
L728.943 659.392
L730.164 673.855
L730.774 668.358
L731.384 658.805
L732.604 636.07
L733.214 643.275
L733.824 644.983
L734.434 651.44
L735.044 648.879
L735.654 652.508
L736.264 653.628
L736.874 664.355
L737.484 664.409
L738.095 665.369
L738.705 664.142
L739.315 666.01
L739.925 663.074
L740.535 663.768
L741.145 663.395
L741.755 661.207
L742.365 654.642
L742.975 653.895
L743.585 655.176
L744.195 652.241
L744.805 658.538
L745.416 662.381
L746.026 653.255
L746.636 651.867
L747.246 648.398
L747.856 657.151
L748.466 647.598
L749.076 648.292
L749.686 645.837
L750.296 646.05
L750.906 645.57
L751.516 649.466
L752.126 643.328
L752.736 649.039
L753.347 649.145
L753.957 650.106
L754.567 649.092
L755.787 639.593
L756.397 641.514
L757.007 635.804
L757.617 637.565
L758.227 634.416
L758.837 633.669
L759.447 638.152
L760.057 638.312
L760.668 632.975
L761.278 626.624
L761.888 624.917
L762.498 625.29
L763.108 630.307
L763.718 627.372
L764.328 635.163
L764.938 631.427
L765.548 638.792
L766.158 630.307
L766.768 629.453
L767.378 626.411
L767.988 620.647
L768.599 631.961
L769.209 632.602
L769.819 616.698
L770.429 618.246
L771.039 612.802
L771.649 610.934
L772.259 612.375
L772.869 606.131
L773.479 608.106
L774.089 613.87
L774.699 617.072
L775.309 605.971
L775.92 606.985
L776.53 607.465
L777.14 599.994
L777.75 588.253
L778.36 594.977
L778.97 591.722
L779.58 611.788
L780.19 610.187
L780.8 611.628
L781.41 611.415
L782.02 608.052
L782.63 608.8
L783.24 601.755
L783.851 601.808
L784.461 599.62
L785.071 606.185
L785.681 600.955
L786.291 592.896
L786.901 592.149
L787.511 593.75
L788.121 596.151
L788.731 339.987
L789.341 358.612
L789.951 436.262
L790.561 459.157
L791.172 468.71
L792.392 501.904
L793.002 498.115
L793.612 487.175
L794.222 495.34
L794.832 499.129
L795.442 508.682
L796.052 507.188
L796.662 491.658
L797.882 513.752
L798.492 503.505
L799.103 514.819
L799.713 528.588
L800.323 520.049
L800.933 525.439
L801.543 524.959
L802.153 531.417
L802.763 529.122
L803.373 534.992
L803.983 529.389
L805.203 559.488
L805.813 554.258
L806.424 554.151
L807.034 562.903
L807.644 556.873
L808.254 573.63
L808.864 578.967
L809.474 573.364
L810.084 601.008
L810.694 586.492
L811.304 583.984
L811.914 590.228
L812.524 584.304
L813.134 583.877
L813.744 599.567
L814.355 596.845
L814.965 608.8
L815.575 602.395
L816.185 612.535
L816.795 618.619
L817.405 613.389
L818.015 621.448
L818.625 624.49
L819.235 629.239
L819.845 637.298
L820.455 641.3
L821.065 652.401
L821.676 653.735
L822.286 663.608
L822.896 655.336
L823.506 659.072
L824.116 665.156
L824.726 666.703
L825.336 678.231
L826.556 690.826
L827.166 693.387
L827.776 694.988
L828.386 699.951
L828.996 700.699
L829.607 696.376
L830.217 696.536
L830.827 701.232
L831.437 709.878
L832.047 708.917
L832.657 711.586
L833.267 716.122
L833.877 713.453
L834.487 712.866
L835.097 718.363
L835.707 725.194
L836.317 725.675
L836.928 724.447
L837.538 727.596
L838.148 723.593
L838.758 717.776
L839.368 717.082
L839.978 715.268
L840.588 715.268
L841.198 707.903
L841.808 703.047
L842.418 694.188
L843.028 693.12
L843.638 701.713
L844.248 701.766
L844.859 702.833
L845.469 697.817
L846.079 697.55
L846.689 701.819
L847.299 705.075
L847.909 703.687
L848.519 697.176
L849.129 702.14
L849.739 692.587
L850.349 693.707
L850.959 690.292
L851.569 684.048
L852.18 679.992
L852.79 695.949
L853.4 688.104
L854.01 691.359
L854.62 697.016
L855.23 690.505
L855.84 691.519
L856.45 688.424
L857.06 687.784
L857.67 684.742
L858.28 683.834
L859.5 672.52
L860.111 672.307
L860.721 671.88
L861.331 670.919
L861.941 670.332
L862.551 662.594
L863.161 661.527
L863.771 657.684
L864.381 658.325
L864.991 664.622
L865.601 664.088
L866.211 662.327
L866.821 663.928
L867.432 652.454
L868.042 634.042
L868.652 631.107
L869.262 638.152
L869.872 632.708
L870.482 641.3
L871.092 637.031
L871.702 634.683
L872.312 635.697
L872.922 631.588
L873.532 639.112
L874.142 638.472
L874.752 648.185
L875.363 641.674
L875.973 639.112
L876.583 632.015
L877.193 633.135
L877.803 636.711
L878.413 631.427
L879.023 633.669
L879.633 628.065
L880.243 617.499
L880.853 615.31
L881.463 620.54
L882.073 619.1
L882.684 619.1
L883.294 624.383
L883.904 617.605
L884.514 623.369
L885.124 623.689
L885.734 624.596
L886.344 615.471
L886.954 608.266
L887.564 610.881
L888.174 612.322
L888.784 613.389
L889.394 616.805
L890.004 614.777
L890.615 614.937
L891.225 601.595
L891.835 600.421
L892.445 605.758
L893.055 604.477
L893.665 607.465
L894.275 607.145
L894.885 611.842
L895.495 604.21
L896.105 607.732
L896.715 608.96
L897.325 613.229
L897.936 611.148
L898.546 603.356
L899.156 612.589
L899.766 611.948
L900.376 624.863
L900.986 618.032
L901.596 621.661
L902.206 615.737
L902.816 622.195
L903.426 623.689
L904.036 626.731
L904.646 624.33
L905.256 613.549
L906.477 620.06
L907.697 617.765
L908.307 608.373
L908.917 606.985
L909.527 604.744
L910.137 610.347
L910.747 592.149
L911.357 613.069
L911.967 604.637
L912.577 600.741
L913.188 593.163
L913.798 595.618
L914.408 587.453
L915.018 581.422
L915.628 590.495
L916.238 583.77
L916.848 585.425
L917.458 589.907
L918.068 597.326
L918.678 593.91
L919.288 596.258
L919.898 597.699
L920.508 581.849
L921.119 591.669
L921.729 588.947
L922.339 598.66
L922.949 601.808
L923.559 606.024
L924.169 421.906
L924.779 363.842
L925.389 406.27
L925.999 415.502
L926.609 443.627
L927.219 454.941
L927.829 483.172
L928.44 484.026
L929.05 471.058
L929.66 484.667
L930.27 490.59
L930.88 490.59
L931.49 483.599
L932.1 480.504
L932.71 495.02
L933.32 484.987
L933.93 499.396
L934.54 494.646
L935.15 505.213
L936.371 521.757
L936.981 514.019
L937.591 511.884
L938.201 516.954
L938.811 526.026
L939.421 514.713
L940.031 522.131
L940.641 544.972
L941.251 549.828
L941.861 545.346
L943.081 563.597
L943.692 566.746
L944.302 569.041
L944.912 569.147
L945.522 575.552
L946.132 577.259
L946.742 585.104
L947.352 585.318
L947.962 600.528
L948.572 597.432
L949.182 592.736
L949.792 598.393
L950.402 608.319
L951.012 603.89
L951.623 608.479
L952.233 614.51
L952.843 615.204
L953.453 623.155
L954.063 624.223
L954.673 616.965
L955.893 640.126
L956.503 639.593
L957.113 646.37
L957.723 651.494
L958.333 664.355
L958.944 668.038
L959.554 679.672
L960.164 677.217
L960.774 686.556
L961.384 680.259
L961.994 681.54
L963.214 689.972
L963.824 683.781
L964.434 691.679
L965.044 693.814
L966.264 702.566
L966.875 697.123
L967.485 697.87
L968.095 707.209
L968.705 713.987
L969.315 712.973
L969.925 704.541
L970.535 709.931
L971.145 712.013
L971.755 713.4
L972.365 713.827
L972.975 713.72
L973.585 712.226
L974.196 711.532
L974.806 714.521
L975.416 706.676
L976.026 712.013
L976.636 714.894
L977.246 711.532
L977.856 701.819
L978.466 707.37
L979.076 707.209
L979.686 707.957
L980.296 709.931
L980.906 710.945
L981.516 705.929
L982.127 706.996
L982.737 710.838
L983.347 703.047
L983.957 707.103
L984.567 693.654
L985.177 709.611
L985.787 697.39
L986.397 687.517
L987.007 687.036
L987.617 694.561
L988.227 693.707
L988.837 695.789
L989.448 695.842
L990.058 694.828
L990.668 678.231
L991.278 682.393
L991.888 676.363
L992.498 672.254
L993.108 673.641
L993.718 676.523
L994.328 665.209
L994.938 662.06
L995.548 661.473
L997.379 644.022
L997.989 639.593
L998.599 636.337
L999.209 641.514
L1000.43 627.158
L1001.04 626.784
L1001.65 634.042
L1002.26 638.205
L1002.87 630.2
L1003.48 610.881
L1004.09 622.515
L1004.7 615.524
L1005.31 643.595
L1005.92 638.739
L1006.53 636.604
L1007.14 632.975
L1007.75 633.722
L1008.36 641.354
L1008.97 630.147
L1009.58 625.023
L1010.19 637.725
L1010.8 631.748
L1011.41 628.065
L1012.02 621.715
L1012.63 625.77
L1013.24 623.369
L1013.85 626.464
L1015.07 616.805
L1015.68 614.67
L1016.29 608.853
L1016.9 618.246
L1017.51 621.021
L1018.12 619.793
L1018.73 629.72
L1019.34 633.616
L1019.95 635.323
L1020.56 615.737
L1021.17 616.271
L1021.78 627.692
L1022.39 629.773
L1023 634.469
L1023.61 633.936
L1024.22 634.843
L1024.83 635.11
L1025.44 633.242
L1026.05 624.863
L1026.66 625.557
L1027.27 625.237
L1027.88 623.262
L1028.49 622.835
L1029.1 622.248
L1029.71 628.332
L1030.32 622.088
L1030.93 625.61
L1031.54 620.967
L1032.15 617.285
L1032.76 610.027
L1033.37 611.948
L1033.98 617.872
L1034.59 619.046
L1035.2 619.633
L1035.81 602.129
L1036.42 607.252
L1037.03 610.614
L1037.64 608.853
L1038.25 599.78
L1038.86 600.474
L1039.47 612.909
L1040.08 614.296
L1040.69 613.069
L1041.3 608.96
L1041.91 604.05
L1042.52 609.653
L1043.13 608.426
L1043.74 605.224
L1044.35 609.28
L1044.96 601.595
L1045.57 591.188
L1046.18 594.017
L1046.8 596.045
L1047.41 604.85
L1048.02 593.163
L1048.63 573.31
L1049.24 574.431
L1049.85 582.97
L1050.46 573.043
L1051.07 570.268
L1051.68 574.804
L1052.29 581.582
L1052.9 576.939
L1053.51 578.167
L1054.12 590.548
L1054.73 574.804
L1055.34 581.369
L1055.95 581.209
L1056.56 577.099
L1057.17 588.413
L1057.78 583.29
L1058.39 570.482
L1059 602.502
L1059.61 470.044
L1060.22 406.43
L1060.83 402.214
L1061.44 424.361
L1062.05 408.458
L1062.66 422.92
L1063.27 431.833
L1063.88 450.671
L1064.49 426.389
L1065.1 417.317
L1065.71 433.167
L1066.32 462.839
L1066.93 461.505
L1067.54 466.415
L1068.15 482.265
L1068.76 483.599
L1069.37 476.608
L1069.98 478.529
L1070.59 475.914
L1071.2 486.214
L1071.81 487.122
L1073.03 529.549
L1073.64 512.418
L1074.25 515.513
L1074.86 526.4
L1075.47 525.866
L1076.08 539.528
L1076.69 543.691
L1077.3 552.657
L1077.91 543.851
L1078.52 541.556
L1079.13 552.924
L1080.35 564.024
L1080.96 571.389
L1081.57 584.197
L1082.18 591.188
L1082.79 591.669
L1083.4 590.228
L1084.01 597.486
L1084.62 600.688
L1085.23 597.753
L1085.84 609.44
L1086.45 613.336
L1087.06 621.074
L1087.67 623.903
L1088.89 637.351
L1089.5 634.363
L1090.11 642.901
L1090.72 644.289
L1091.33 640.126
L1091.94 651.814
L1092.55 648.452
L1093.16 663.341
L1093.77 664.355
L1094.38 680.899
L1094.99 680.953
L1095.6 681.219
L1096.21 679.565
L1097.43 692.693
L1098.04 694.668
L1098.65 695.469
L1099.26 697.336
L1099.87 689.651
L1100.48 704.221
L1101.09 703.847
L1101.7 706.462
L1102.31 717.723
L1102.92 714.841
L1103.53 718.683
L1104.14 717.883
L1104.75 729.731
L1105.36 724.927
L1105.97 723.647
L1106.58 731.385
L1107.19 730.051
L1107.8 730.638
L1108.41 732.879
L1109.02 730.051
L1109.63 727.916
L1110.24 724.874
L1110.85 726.102
L1111.46 723.807
L1112.07 724.074
L1112.68 718.203
L1113.29 719.431
L1113.9 719.644
L1114.51 715.268
L1115.12 715.215
L1115.73 709.718
L1116.34 708.81
L1116.95 713.88
L1117.56 717.456
L1118.17 713.614
L1118.78 712.493
L1119.39 701.926
L1120 716.655
L1120.61 705.502
L1121.22 700.752
L1121.83 711.105
L1122.44 708.864
L1123.06 708.49
L1124.28 701.072
L1124.89 690.932
L1125.5 697.497
L1126.11 699.418
L1126.72 695.789
L1127.33 688.477
L1127.94 693.014
L1128.55 682.233
L1129.16 694.455
L1129.77 690.826
L1130.38 691.306
L1130.99 676.31
L1131.6 672.094
L1132.21 660.299
L1132.82 667.717
L1133.43 673.588
L1134.65 659.766
L1135.26 612.589
L1135.87 605.117
L1136.48 602.609
L1137.09 610.241
L1137.7 603.303
L1138.31 617.232
L1138.92 611.735
L1139.53 618.726
L1140.14 601.755
L1140.75 613.176
L1141.36 614.243
L1141.97 608.693
L1142.58 611.468
L1143.19 612.269
L1143.8 600.421
L1144.41 603.783
L1145.02 641.621
L1145.63 653.362
L1146.24 650.159
L1146.85 659.179
L1147.46 652.454
L1148.07 651.921
L1148.68 655.016
L1149.29 644.396
L1149.9 635.91
L1150.51 639.006
L1151.12 633.509
L1151.73 637.245
L1152.34 653.148
L1152.95 659.606
L1153.56 660.139
L1154.17 662.274
L1154.78 665.529
L1155.39 657.097
L1156 652.027
L1156.61 664.569
L1157.22 660.513
L1157.83 654.482
L1158.44 652.508
L1159.05 659.819
L1159.66 652.881
L1160.27 663.822
L1161.49 650.053
L1162.1 644.556
L1162.71 643.862
L1163.32 644.929
L1163.93 644.929
L1164.54 637.938
L1165.15 644.449
L1165.76 644.769
L1166.37 650.32
L1166.98 653.148
L1167.59 647.224
L1168.2 647.865
L1168.81 652.401
L1169.42 645.196
L1170.03 653.468
L1170.64 646.317
L1171.25 647.171
L1171.86 654.269
L1172.47 651.067
L1173.08 647.064
L1173.69 640.767
L1174.3 638.846
L1174.91 637.832
L1175.52 637.671
L1176.13 642.848
L1176.74 649.999
L1177.35 652.241
L1177.96 649.519
L1178.57 645.41
L1179.18 645.09
L1179.79 646.37
L1181.01 653.308
L1181.62 652.935
L1182.23 645.463
L1182.84 643.328
L1183.45 643.275
L1184.06 640.02
L1184.67 648.879
L1185.28 645.356
L1185.89 648.078
L1186.5 642.421
L1187.11 649.679
L1187.72 632.175
L1188.33 622.088
L1188.94 625.023
L1189.55 622.782
L1190.16 617.285
L1190.77 618.513
L1191.38 622.195
L1191.99 615.577
L1193.21 611.415
L1193.82 610.241
L1194.43 606.345
L1195.65 404.722
L1196.26 427.83
L1196.87 422.387
L1197.48 422.653
L1198.09 426.016
L1198.7 423.614
L1199.32 409.899
L1199.93 429.698
L1200.54 424.521
L1201.15 442.453
L1201.76 447.63
L1202.37 437.383
L1202.98 453.767
L1203.59 473.833
L1204.2 485.254
L1204.81 489.523
L1205.42 484.133
L1206.03 497.848
L1206.64 480.397
L1207.25 482.425
L1207.86 496.568
L1208.47 502.331
L1209.08 511.991
L1209.69 511.084
L1210.3 517.594
L1210.91 522.291
L1211.52 529.282
L1212.13 534.405
L1212.74 526.4
L1213.35 529.389
L1213.96 536.647
L1214.57 532.751
L1215.18 539.635
L1215.79 553.457
L1216.4 571.656
L1217.01 581.315
L1217.62 568.294
L1218.23 570.428
L1218.84 578.007
L1219.45 581.315
L1220.06 586.866
L1220.67 601.808
L1221.28 601.915
L1221.89 606.398
L1222.5 607.892
L1223.72 614.403
L1224.33 619.58
L1224.94 621.021
L1225.55 630.68
L1226.16 631.641
L1226.77 636.497
L1227.38 660.78
L1227.99 664.889
L1228.6 665.636
L1229.21 669.692
L1229.82 671.72
L1230.43 664.302
L1231.04 667.504
L1231.65 678.765
L1232.26 681.86
L1232.87 686.022
L1233.48 685.809
L1234.09 691.84
L1234.7 690.986
L1235.31 691.039
L1236.53 695.522
L1237.14 699.151
L1237.75 700.965
L1238.36 701.446
L1238.97 698.511
L1239.58 703.847
L1240.19 703.047
L1240.8 716.869
L1241.41 727.116
L1242.02 728.983
L1242.63 732.346
L1243.24 729.143
L1243.85 733.039
L1244.46 725.515
L1245.07 729.731
L1245.68 718.363
L1246.29 709.664
L1246.9 717.616
L1247.51 717.776
L1248.12 720.178
L1248.73 711.799
L1249.34 706.356
L1249.95 714.414
L1250.56 717.456
L1251.17 719.004
L1251.78 713.187
L1253 717.509
L1253.61 716.335
L1254.22 712.6
L1254.83 709.824
L1255.44 709.878
L1256.05 707.957
L1256.66 711.372
L1257.27 707.103
L1257.88 704.701
L1258.49 708.01
L1259.1 708.81
L1259.71 700.538
L1260.32 701.819
L1261.54 696.269
L1262.15 693.014
L1262.76 697.657
L1263.37 691.573
L1263.98 691.039
L1264.59 686.77
L1265.81 680.366
L1266.42 678.391
L1267.03 678.391
L1267.64 681.593
L1268.25 679.352
L1268.86 674.442
L1269.47 676.576
L1270.08 675.989
L1270.69 670.066
L1271.3 675.082
L1271.91 677.003
L1272.52 655.336
L1273.13 645.73
L1273.74 663.822
L1274.35 671.24
L1274.96 673.321
L1275.58 669.158
L1276.19 671.133
L1276.8 666.703
L1277.41 668.038
L1278.63 638.846
L1279.24 643.275
L1279.85 653.255
L1280.46 652.027
L1281.07 651.547
L1281.68 644.129
L1282.29 628.706
L1282.9 648.665
L1283.51 652.881
L1284.12 655.123
L1284.73 650.266
L1285.34 656.03
L1286.56 637.458
L1287.17 646.744
L1287.78 645.303
L1288.39 644.876
L1289 638.045
L1289.61 648.132
L1290.22 656.03
L1290.83 659.072
L1291.44 650.853
L1292.05 652.881
L1292.66 644.396
L1293.27 657.898
L1293.88 652.614
L1294.49 653.148
L1295.1 658.325
L1295.71 651.707
L1296.32 638.365
L1296.93 637.832
L1297.54 640.233
L1298.15 643.328
L1298.76 648.292
L1299.37 644.449
L1299.98 650.266
L1300.59 648.238
L1301.2 650.426
L1301.81 649.946
L1302.42 646.691
L1303.03 647.171
L1303.64 640.02
L1304.25 640.073
L1304.86 643.168
L1305.47 653.735
L1306.08 643.115
L1306.69 636.497
L1307.3 634.896
L1307.91 639.539
L1308.52 639.593
L1309.13 635.804
L1309.74 648.719
L1310.35 640.18
L1310.96 628.439
L1311.57 628.492
L1312.18 631.374
L1312.79 639.486
L1313.4 638.045
L1314.01 624.276
L1314.62 623.743
L1315.23 635.91
L1315.84 627.745
L1316.45 623.476
L1317.06 625.877
L1317.67 635.59
L1318.28 625.717
L1318.89 622.302
L1319.5 624.436
L1320.11 624.596
L1320.72 626.411
L1321.33 622.889
L1321.94 628.279
L1322.55 626.304
L1323.16 630.413
L1323.77 625.557
L1324.38 628.652
L1324.99 621.021
L1325.6 623.262
L1326.82 626.091
L1327.43 622.408
L1328.04 623.102
L1328.65 623.155
L1329.26 623.849
L1329.87 620.434
L1330.48 581.048
L1331.09 409.952
L1331.7 402.481
L1332.31 392.874
L1332.92 396.877
L1333.53 402.747
L1334.14 400.026
L1334.75 406.536
L1335.36 407.977
L1335.97 411.767
L1336.58 407.55
L1337.19 393.408
L1337.8 417.37
L1338.41 420.038
L1339.02 416.73
L1339.63 425.749
L1340.24 414.221
L1340.85 446.562
L1341.46 446.722
L1342.07 447.469
L1342.68 438.717
L1343.29 449.444
L1343.9 454.727
L1344.51 462.626
L1345.12 483.546
L1345.73 480.824
L1346.34 487.335
L1346.95 510.443
L1347.56 506.654
L1348.17 508.735
L1348.78 535.259
L1349.39 523.251
L1350 533.605
L1350.61 525.813
L1351.22 532.324
L1351.84 537.607
L1352.45 537.501
L1353.06 547.961
L1353.67 576.672
L1354.28 576.779
L1354.89 574.751
L1355.5 581.902
L1356.11 591.722
L1356.72 588.253
L1357.33 600.474
L1357.94 599.193
L1358.55 594.711
L1359.16 615.044
L1359.77 624.863
L1360.38 628.812
L1360.99 635.323
L1361.6 637.351
L1362.21 637.992
L1362.82 650.907
L1363.43 642.314
L1364.04 650.64
L1364.65 666.17
L1365.26 666.81
L1365.87 675.776
L1366.48 680.686
L1367.09 677.751
L1367.7 677.59
L1368.31 680.366
L1368.92 680.579
L1369.53 687.036
L1370.14 682.393
L1370.75 687.036
L1371.36 689.385
L1371.97 690.239
L1372.58 692.16
L1373.19 689.598
L1373.8 698.244
L1374.41 698.03
L1375.02 703.26
L1375.63 713.187
L1376.24 714.201
L1376.85 716.495
L1377.46 721.192
L1378.07 715.108
L1378.68 718.31
L1379.29 717.83
L1379.9 716.229
L1380.51 715.161
L1381.12 714.841
L1381.73 698.777
L1382.95 716.175
L1383.56 715.748
L1384.17 705.608
L1384.78 709.664
L1386 702.3
L1386.61 709.077
L1387.22 713.827
L1387.83 698.937
L1388.44 697.603
L1389.05 701.019
L1389.66 702.353
L1390.27 688.477
L1390.88 693.387
L1391.49 688.691
L1392.1 697.336
L1392.71 701.979
L1393.32 692.48
L1393.93 698.564
L1394.54 692
L1395.15 704.167
L1395.76 699.044
L1396.37 689.011
L1396.98 692.213
L1397.59 684.048
L1398.2 689.171
L1398.81 680.152
L1399.42 680.632
L1400.03 670.493
L1400.64 670.439
L1401.25 669.425
L1401.86 674.709
L1402.47 671.453
L1403.08 673.268
L1403.69 673.321
L1404.3 665.689
L1404.91 670.653
L1405.52 670.759
L1406.13 664.355
L1406.74 662.327
L1407.35 656.083
L1407.96 662.327
L1408.57 648.665
L1409.18 658.005
L1409.79 661.74
L1410.4 650.853
L1411.01 649.999
L1411.62 657.631
L1412.23 655.55
L1412.84 650.266
L1413.45 657.257
L1414.06 649.786
L1414.67 647.438
L1415.28 647.971
L1415.89 653.949
L1416.5 647.064
L1417.11 651.387
L1417.72 653.522
L1418.33 651.44
L1418.94 641.461
L1419.55 651.761
L1420.16 649.466
L1420.77 654.802
L1421.38 649.626
L1421.99 647.971
L1422.6 642.261
L1423.21 652.881
L1423.82 648.025
L1424.43 651.974
L1425.04 648.185
L1425.65 649.412
L1426.26 648.132
L1426.87 651.494
L1427.48 647.118
L1428.1 645.356
L1428.71 646.05
L1429.32 645.517
L1429.93 646.53
L1430.54 642.101
L1431.15 644.503
L1431.76 642.261
L1432.37 648.719
L1432.98 640.607
L1433.59 638.152
L1434.2 628.652
L1434.81 638.899
L1435.42 637.992
L1436.03 638.365
L1436.64 649.199
L1437.25 646.744
L1437.86 645.143
L1438.47 640.233
L1439.08 627.265
L1439.69 628.065
L1440.3 634.95
L1440.91 631.321
L1441.52 639.006
L1442.13 635.91
L1442.74 629.346
L1443.35 629.506
L1443.96 630.307
L1444.57 618.032
L1445.18 626.197
L1445.79 626.998
L1446.4 620.647
L1447.01 635.163
L1447.62 636.497
L1448.23 641.354
L1448.84 648.932
L1449.45 641.354
L1450.06 639.806
L1450.67 643.755
L1451.28 639.646
L1451.89 628.866
L1452.5 632.548
L1453.11 635.27
L1453.72 636.551
L1454.33 631.908
L1454.94 637.511
L1455.55 633.242
L1456.16 631.481
L1456.77 626.731
L1457.38 626.731
L1458.6 608.693
L1459.21 607.145
L1459.82 612.535
L1460.43 608.533
L1461.04 613.763
L1461.65 602.662
L1462.26 612.749
L1462.87 606.932
L1463.48 616.378
L1464.09 618.299
L1464.7 614.243
L1465.31 615.15
L1465.31 615.15" style="fill:none;stroke:#000000;stroke-linecap:square;stroke-width:2.0;"/>
   </g>
   <g id="matplotlib.axis_1">
    <g id="xtick_1">
     <g id="line2d_2">
      <defs>
       <path d="
M0 0
L0 -4" id="m93b0483c22" style="stroke:#000000;stroke-width:0.5;"/>
      </defs>
      <g>
       <use style="stroke:#000000;stroke-width:0.5;" x="216.0" xlink:href="#m93b0483c22" y="735.48"/>
      </g>
     </g>
     <g id="line2d_3">
      <defs>
       <path d="
M0 0
L0 4" id="m741efc42ff" style="stroke:#000000;stroke-width:0.5;"/>
      </defs>
      <g>
       <use style="stroke:#000000;stroke-width:0.5;" x="216.0" xlink:href="#m741efc42ff" y="81.72"/>
      </g>
     </g>
     <g id="text_1">
      <!-- 9.630 -->
      <defs>
       <path d="
M10.9844 1.51562
L10.9844 10.5
Q14.7031 8.73438 18.5 7.8125
Q22.3125 6.89062 25.9844 6.89062
Q35.75 6.89062 40.8906 13.4531
Q46.0469 20.0156 46.7812 33.4062
Q43.9531 29.2031 39.5938 26.9531
Q35.25 24.7031 29.9844 24.7031
Q19.0469 24.7031 12.6719 31.3125
Q6.29688 37.9375 6.29688 49.4219
Q6.29688 60.6406 12.9375 67.4219
Q19.5781 74.2188 30.6094 74.2188
Q43.2656 74.2188 49.9219 64.5156
Q56.5938 54.8281 56.5938 36.375
Q56.5938 19.1406 48.4062 8.85938
Q40.2344 -1.42188 26.4219 -1.42188
Q22.7031 -1.42188 18.8906 -0.6875
Q15.0938 0.046875 10.9844 1.51562
M30.6094 32.4219
Q37.25 32.4219 41.125 36.9531
Q45.0156 41.5 45.0156 49.4219
Q45.0156 57.2812 41.125 61.8438
Q37.25 66.4062 30.6094 66.4062
Q23.9688 66.4062 20.0938 61.8438
Q16.2188 57.2812 16.2188 49.4219
Q16.2188 41.5 20.0938 36.9531
Q23.9688 32.4219 30.6094 32.4219" id="DejaVuSans-39"/>
       <path d="
M31.7812 66.4062
Q24.1719 66.4062 20.3281 58.9062
Q16.5 51.4219 16.5 36.375
Q16.5 21.3906 20.3281 13.8906
Q24.1719 6.39062 31.7812 6.39062
Q39.4531 6.39062 43.2812 13.8906
Q47.125 21.3906 47.125 36.375
Q47.125 51.4219 43.2812 58.9062
Q39.4531 66.4062 31.7812 66.4062
M31.7812 74.2188
Q44.0469 74.2188 50.5156 64.5156
Q56.9844 54.8281 56.9844 36.375
Q56.9844 17.9688 50.5156 8.26562
Q44.0469 -1.42188 31.7812 -1.42188
Q19.5312 -1.42188 13.0625 8.26562
Q6.59375 17.9688 6.59375 36.375
Q6.59375 54.8281 13.0625 64.5156
Q19.5312 74.2188 31.7812 74.2188" id="DejaVuSans-30"/>
       <path d="
M40.5781 39.3125
Q47.6562 37.7969 51.625 33
Q55.6094 28.2188 55.6094 21.1875
Q55.6094 10.4062 48.1875 4.48438
Q40.7656 -1.42188 27.0938 -1.42188
Q22.5156 -1.42188 17.6562 -0.515625
Q12.7969 0.390625 7.625 2.20312
L7.625 11.7188
Q11.7188 9.32812 16.5938 8.10938
Q21.4844 6.89062 26.8125 6.89062
Q36.0781 6.89062 40.9375 10.5469
Q45.7969 14.2031 45.7969 21.1875
Q45.7969 27.6406 41.2812 31.2656
Q36.7656 34.9062 28.7188 34.9062
L20.2188 34.9062
L20.2188 43.0156
L29.1094 43.0156
Q36.375 43.0156 40.2344 45.9219
Q44.0938 48.8281 44.0938 54.2969
Q44.0938 59.9062 40.1094 62.9062
Q36.1406 65.9219 28.7188 65.9219
Q24.6562 65.9219 20.0156 65.0312
Q15.375 64.1562 9.8125 62.3125
L9.8125 71.0938
Q15.4375 72.6562 20.3438 73.4375
Q25.25 74.2188 29.5938 74.2188
Q40.8281 74.2188 47.3594 69.1094
Q53.9062 64.0156 53.9062 55.3281
Q53.9062 49.2656 50.4375 45.0938
Q46.9688 40.9219 40.5781 39.3125" id="DejaVuSans-33"/>
       <path d="
M33.0156 40.375
Q26.375 40.375 22.4844 35.8281
Q18.6094 31.2969 18.6094 23.3906
Q18.6094 15.5312 22.4844 10.9531
Q26.375 6.39062 33.0156 6.39062
Q39.6562 6.39062 43.5312 10.9531
Q47.4062 15.5312 47.4062 23.3906
Q47.4062 31.2969 43.5312 35.8281
Q39.6562 40.375 33.0156 40.375
M52.5938 71.2969
L52.5938 62.3125
Q48.875 64.0625 45.0938 64.9844
Q41.3125 65.9219 37.5938 65.9219
Q27.8281 65.9219 22.6719 59.3281
Q17.5312 52.7344 16.7969 39.4062
Q19.6719 43.6562 24.0156 45.9219
Q28.375 48.1875 33.5938 48.1875
Q44.5781 48.1875 50.9531 41.5156
Q57.3281 34.8594 57.3281 23.3906
Q57.3281 12.1562 50.6875 5.35938
Q44.0469 -1.42188 33.0156 -1.42188
Q20.3594 -1.42188 13.6719 8.26562
Q6.98438 17.9688 6.98438 36.375
Q6.98438 53.6562 15.1875 63.9375
Q23.3906 74.2188 37.2031 74.2188
Q40.9219 74.2188 44.7031 73.4844
Q48.4844 72.75 52.5938 71.2969" id="DejaVuSans-36"/>
       <path d="
M10.6875 12.4062
L21 12.4062
L21 0
L10.6875 0
z
" id="DejaVuSans-2e"/>
      </defs>
      <g transform="translate(199.599375 748.598125)scale(0.12 -0.12)">
       <use xlink:href="#DejaVuSans-39"/>
       <use x="63.623046875" xlink:href="#DejaVuSans-2e"/>
       <use x="95.41015625" xlink:href="#DejaVuSans-36"/>
       <use x="159.033203125" xlink:href="#DejaVuSans-33"/>
       <use x="222.65625" xlink:href="#DejaVuSans-30"/>
      </g>
     </g>
    </g>
    <g id="xtick_2">
     <g id="line2d_4">
      <g>
       <use style="stroke:#000000;stroke-width:0.5;" x="364.8" xlink:href="#m93b0483c22" y="735.48"/>
      </g>
     </g>
     <g id="line2d_5">
      <g>
       <use style="stroke:#000000;stroke-width:0.5;" x="364.8" xlink:href="#m741efc42ff" y="81.72"/>
      </g>
     </g>
     <g id="text_2">
      <!-- 9.635 -->
      <defs>
       <path d="
M10.7969 72.9062
L49.5156 72.9062
L49.5156 64.5938
L19.8281 64.5938
L19.8281 46.7344
Q21.9688 47.4688 24.1094 47.8281
Q26.2656 48.1875 28.4219 48.1875
Q40.625 48.1875 47.75 41.5
Q54.8906 34.8125 54.8906 23.3906
Q54.8906 11.625 47.5625 5.09375
Q40.2344 -1.42188 26.9062 -1.42188
Q22.3125 -1.42188 17.5469 -0.640625
Q12.7969 0.140625 7.71875 1.70312
L7.71875 11.625
Q12.1094 9.23438 16.7969 8.0625
Q21.4844 6.89062 26.7031 6.89062
Q35.1562 6.89062 40.0781 11.3281
Q45.0156 15.7656 45.0156 23.3906
Q45.0156 31 40.0781 35.4375
Q35.1562 39.8906 26.7031 39.8906
Q22.75 39.8906 18.8125 39.0156
Q14.8906 38.1406 10.7969 36.2812
z
" id="DejaVuSans-35"/>
      </defs>
      <g transform="translate(348.525 748.598125)scale(0.12 -0.12)">
       <use xlink:href="#DejaVuSans-39"/>
       <use x="63.623046875" xlink:href="#DejaVuSans-2e"/>
       <use x="95.41015625" xlink:href="#DejaVuSans-36"/>
       <use x="159.033203125" xlink:href="#DejaVuSans-33"/>
       <use x="222.65625" xlink:href="#DejaVuSans-35"/>
      </g>
     </g>
    </g>
    <g id="xtick_3">
     <g id="line2d_6">
      <g>
       <use style="stroke:#000000;stroke-width:0.5;" x="513.6" xlink:href="#m93b0483c22" y="735.48"/>
      </g>
     </g>
     <g id="line2d_7">
      <g>
       <use style="stroke:#000000;stroke-width:0.5;" x="513.6" xlink:href="#m741efc42ff" y="81.72"/>
      </g>
     </g>
     <g id="text_3">
      <!-- 9.640 -->
      <defs>
       <path d="
M37.7969 64.3125
L12.8906 25.3906
L37.7969 25.3906
z

M35.2031 72.9062
L47.6094 72.9062
L47.6094 25.3906
L58.0156 25.3906
L58.0156 17.1875
L47.6094 17.1875
L47.6094 0
L37.7969 0
L37.7969 17.1875
L4.89062 17.1875
L4.89062 26.7031
z
" id="DejaVuSans-34"/>
      </defs>
      <g transform="translate(497.199375 748.598125)scale(0.12 -0.12)">
       <use xlink:href="#DejaVuSans-39"/>
       <use x="63.623046875" xlink:href="#DejaVuSans-2e"/>
       <use x="95.41015625" xlink:href="#DejaVuSans-36"/>
       <use x="159.033203125" xlink:href="#DejaVuSans-34"/>
       <use x="222.65625" xlink:href="#DejaVuSans-30"/>
      </g>
     </g>
    </g>
    <g id="xtick_4">
     <g id="line2d_8">
      <g>
       <use style="stroke:#000000;stroke-width:0.5;" x="662.4" xlink:href="#m93b0483c22" y="735.48"/>
      </g>
     </g>
     <g id="line2d_9">
      <g>
       <use style="stroke:#000000;stroke-width:0.5;" x="662.4" xlink:href="#m741efc42ff" y="81.72"/>
      </g>
     </g>
     <g id="text_4">
      <!-- 9.645 -->
      <g transform="translate(646.125 748.598125)scale(0.12 -0.12)">
       <use xlink:href="#DejaVuSans-39"/>
       <use x="63.623046875" xlink:href="#DejaVuSans-2e"/>
       <use x="95.41015625" xlink:href="#DejaVuSans-36"/>
       <use x="159.033203125" xlink:href="#DejaVuSans-34"/>
       <use x="222.65625" xlink:href="#DejaVuSans-35"/>
      </g>
     </g>
    </g>
    <g id="xtick_5">
     <g id="line2d_10">
      <g>
       <use style="stroke:#000000;stroke-width:0.5;" x="811.2" xlink:href="#m93b0483c22" y="735.48"/>
      </g>
     </g>
     <g id="line2d_11">
      <g>
       <use style="stroke:#000000;stroke-width:0.5;" x="811.2" xlink:href="#m741efc42ff" y="81.72"/>
      </g>
     </g>
     <g id="text_5">
      <!-- 9.650 -->
      <g transform="translate(794.799375 748.598125)scale(0.12 -0.12)">
       <use xlink:href="#DejaVuSans-39"/>
       <use x="63.623046875" xlink:href="#DejaVuSans-2e"/>
       <use x="95.41015625" xlink:href="#DejaVuSans-36"/>
       <use x="159.033203125" xlink:href="#DejaVuSans-35"/>
       <use x="222.65625" xlink:href="#DejaVuSans-30"/>
      </g>
     </g>
    </g>
    <g id="xtick_6">
     <g id="line2d_12">
      <g>
       <use style="stroke:#000000;stroke-width:0.5;" x="960.0" xlink:href="#m93b0483c22" y="735.48"/>
      </g>
     </g>
     <g id="line2d_13">
      <g>
       <use style="stroke:#000000;stroke-width:0.5;" x="960.0" xlink:href="#m741efc42ff" y="81.72"/>
      </g>
     </g>
     <g id="text_6">
      <!-- 9.655 -->
      <g transform="translate(943.725 748.598125)scale(0.12 -0.12)">
       <use xlink:href="#DejaVuSans-39"/>
       <use x="63.623046875" xlink:href="#DejaVuSans-2e"/>
       <use x="95.41015625" xlink:href="#DejaVuSans-36"/>
       <use x="159.033203125" xlink:href="#DejaVuSans-35"/>
       <use x="222.65625" xlink:href="#DejaVuSans-35"/>
      </g>
     </g>
    </g>
    <g id="xtick_7">
     <g id="line2d_14">
      <g>
       <use style="stroke:#000000;stroke-width:0.5;" x="1108.8" xlink:href="#m93b0483c22" y="735.48"/>
      </g>
     </g>
     <g id="line2d_15">
      <g>
       <use style="stroke:#000000;stroke-width:0.5;" x="1108.8" xlink:href="#m741efc42ff" y="81.72"/>
      </g>
     </g>
     <g id="text_7">
      <!-- 9.660 -->
      <g transform="translate(1092.399375 748.598125)scale(0.12 -0.12)">
       <use xlink:href="#DejaVuSans-39"/>
       <use x="63.623046875" xlink:href="#DejaVuSans-2e"/>
       <use x="95.41015625" xlink:href="#DejaVuSans-36"/>
       <use x="159.033203125" xlink:href="#DejaVuSans-36"/>
       <use x="222.65625" xlink:href="#DejaVuSans-30"/>
      </g>
     </g>
    </g>
    <g id="xtick_8">
     <g id="line2d_16">
      <g>
       <use style="stroke:#000000;stroke-width:0.5;" x="1257.6" xlink:href="#m93b0483c22" y="735.48"/>
      </g>
     </g>
     <g id="line2d_17">
      <g>
       <use style="stroke:#000000;stroke-width:0.5;" x="1257.6" xlink:href="#m741efc42ff" y="81.72"/>
      </g>
     </g>
     <g id="text_8">
      <!-- 9.665 -->
      <g transform="translate(1241.325 748.598125)scale(0.12 -0.12)">
       <use xlink:href="#DejaVuSans-39"/>
       <use x="63.623046875" xlink:href="#DejaVuSans-2e"/>
       <use x="95.41015625" xlink:href="#DejaVuSans-36"/>
       <use x="159.033203125" xlink:href="#DejaVuSans-36"/>
       <use x="222.65625" xlink:href="#DejaVuSans-35"/>
      </g>
     </g>
    </g>
    <g id="xtick_9">
     <g id="line2d_18">
      <g>
       <use style="stroke:#000000;stroke-width:0.5;" x="1406.4" xlink:href="#m93b0483c22" y="735.48"/>
      </g>
     </g>
     <g id="line2d_19">
      <g>
       <use style="stroke:#000000;stroke-width:0.5;" x="1406.4" xlink:href="#m741efc42ff" y="81.72"/>
      </g>
     </g>
     <g id="text_9">
      <!-- 9.670 -->
      <defs>
       <path d="
M8.20312 72.9062
L55.0781 72.9062
L55.0781 68.7031
L28.6094 0
L18.3125 0
L43.2188 64.5938
L8.20312 64.5938
z
" id="DejaVuSans-37"/>
      </defs>
      <g transform="translate(1389.999375 748.598125)scale(0.12 -0.12)">
       <use xlink:href="#DejaVuSans-39"/>
       <use x="63.623046875" xlink:href="#DejaVuSans-2e"/>
       <use x="95.41015625" xlink:href="#DejaVuSans-36"/>
       <use x="159.033203125" xlink:href="#DejaVuSans-37"/>
       <use x="222.65625" xlink:href="#DejaVuSans-30"/>
      </g>
     </g>
    </g>
    <g id="xtick_10">
     <g id="line2d_20">
      <g>
       <use style="stroke:#000000;stroke-width:0.5;" x="1555.2" xlink:href="#m93b0483c22" y="735.48"/>
      </g>
     </g>
     <g id="line2d_21">
      <g>
       <use style="stroke:#000000;stroke-width:0.5;" x="1555.2" xlink:href="#m741efc42ff" y="81.72"/>
      </g>
     </g>
     <g id="text_10">
      <!-- 9.675 -->
      <g transform="translate(1538.925 748.598125)scale(0.12 -0.12)">
       <use xlink:href="#DejaVuSans-39"/>
       <use x="63.623046875" xlink:href="#DejaVuSans-2e"/>
       <use x="95.41015625" xlink:href="#DejaVuSans-36"/>
       <use x="159.033203125" xlink:href="#DejaVuSans-37"/>
       <use x="222.65625" xlink:href="#DejaVuSans-35"/>
      </g>
     </g>
    </g>
    <g id="text_11">
     <!-- 1e15 -->
     <defs>
      <path d="
M12.4062 8.29688
L28.5156 8.29688
L28.5156 63.9219
L10.9844 60.4062
L10.9844 69.3906
L28.4219 72.9062
L38.2812 72.9062
L38.2812 8.29688
L54.3906 8.29688
L54.3906 0
L12.4062 0
z
" id="DejaVuSans-31"/>
      <path d="
M56.2031 29.5938
L56.2031 25.2031
L14.8906 25.2031
Q15.4844 15.9219 20.4844 11.0625
Q25.4844 6.20312 34.4219 6.20312
Q39.5938 6.20312 44.4531 7.46875
Q49.3125 8.73438 54.1094 11.2812
L54.1094 2.78125
Q49.2656 0.734375 44.1875 -0.34375
Q39.1094 -1.42188 33.8906 -1.42188
Q20.7969 -1.42188 13.1562 6.1875
Q5.51562 13.8125 5.51562 26.8125
Q5.51562 40.2344 12.7656 48.1094
Q20.0156 56 32.3281 56
Q43.3594 56 49.7812 48.8906
Q56.2031 41.7969 56.2031 29.5938
M47.2188 32.2344
Q47.125 39.5938 43.0938 43.9844
Q39.0625 48.3906 32.4219 48.3906
Q24.9062 48.3906 20.3906 44.1406
Q15.875 39.8906 15.1875 32.1719
z
" id="DejaVuSans-65"/>
     </defs>
     <g transform="translate(1527.2775 763.211875)scale(0.12 -0.12)">
      <use xlink:href="#DejaVuSans-31"/>
      <use x="63.623046875" xlink:href="#DejaVuSans-65"/>
      <use x="125.146484375" xlink:href="#DejaVuSans-31"/>
      <use x="188.76953125" xlink:href="#DejaVuSans-35"/>
     </g>
    </g>
   </g>
   <g id="matplotlib.axis_2">
    <g id="ytick_1">
     <g id="line2d_22">
      <defs>
       <path d="
M0 0
L4 0" id="m728421d6d4" style="stroke:#000000;stroke-width:0.5;"/>
      </defs>
      <g>
       <use style="stroke:#000000;stroke-width:0.5;" x="216.0" xlink:href="#m728421d6d4" y="735.48"/>
      </g>
     </g>
     <g id="line2d_23">
      <defs>
       <path d="
M0 0
L-4 0" id="mcb0005524f" style="stroke:#000000;stroke-width:0.5;"/>
      </defs>
      <g>
       <use style="stroke:#000000;stroke-width:0.5;" x="1555.2" xlink:href="#mcb0005524f" y="735.48"/>
      </g>
     </g>
     <g id="text_12">
      <!-- 0.0002 -->
      <defs>
       <path d="
M19.1875 8.29688
L53.6094 8.29688
L53.6094 0
L7.32812 0
L7.32812 8.29688
Q12.9375 14.1094 22.625 23.8906
Q32.3281 33.6875 34.8125 36.5312
Q39.5469 41.8438 41.4219 45.5312
Q43.3125 49.2188 43.3125 52.7812
Q43.3125 58.5938 39.2344 62.25
Q35.1562 65.9219 28.6094 65.9219
Q23.9688 65.9219 18.8125 64.3125
Q13.6719 62.7031 7.8125 59.4219
L7.8125 69.3906
Q13.7656 71.7812 18.9375 73
Q24.125 74.2188 28.4219 74.2188
Q39.75 74.2188 46.4844 68.5469
Q53.2188 62.8906 53.2188 53.4219
Q53.2188 48.9219 51.5312 44.8906
Q49.8594 40.875 45.4062 35.4062
Q44.1875 33.9844 37.6406 27.2188
Q31.1094 20.4531 19.1875 8.29688" id="DejaVuSans-32"/>
      </defs>
      <g transform="translate(172.004375 738.79125)scale(0.12 -0.12)">
       <use xlink:href="#DejaVuSans-30"/>
       <use x="63.623046875" xlink:href="#DejaVuSans-2e"/>
       <use x="95.41015625" xlink:href="#DejaVuSans-30"/>
       <use x="159.033203125" xlink:href="#DejaVuSans-30"/>
       <use x="222.65625" xlink:href="#DejaVuSans-30"/>
       <use x="286.279296875" xlink:href="#DejaVuSans-32"/>
      </g>
     </g>
    </g>
    <g id="ytick_2">
     <g id="line2d_24">
      <g>
       <use style="stroke:#000000;stroke-width:0.5;" x="216.0" xlink:href="#m728421d6d4" y="653.76"/>
      </g>
     </g>
     <g id="line2d_25">
      <g>
       <use style="stroke:#000000;stroke-width:0.5;" x="1555.2" xlink:href="#mcb0005524f" y="653.76"/>
      </g>
     </g>
     <g id="text_13">
      <!-- 0.0004 -->
      <g transform="translate(171.475625 657.07125)scale(0.12 -0.12)">
       <use xlink:href="#DejaVuSans-30"/>
       <use x="63.623046875" xlink:href="#DejaVuSans-2e"/>
       <use x="95.41015625" xlink:href="#DejaVuSans-30"/>
       <use x="159.033203125" xlink:href="#DejaVuSans-30"/>
       <use x="222.65625" xlink:href="#DejaVuSans-30"/>
       <use x="286.279296875" xlink:href="#DejaVuSans-34"/>
      </g>
     </g>
    </g>
    <g id="ytick_3">
     <g id="line2d_26">
      <g>
       <use style="stroke:#000000;stroke-width:0.5;" x="216.0" xlink:href="#m728421d6d4" y="572.04"/>
      </g>
     </g>
     <g id="line2d_27">
      <g>
       <use style="stroke:#000000;stroke-width:0.5;" x="1555.2" xlink:href="#mcb0005524f" y="572.04"/>
      </g>
     </g>
     <g id="text_14">
      <!-- 0.0006 -->
      <g transform="translate(171.558125 575.35125)scale(0.12 -0.12)">
       <use xlink:href="#DejaVuSans-30"/>
       <use x="63.623046875" xlink:href="#DejaVuSans-2e"/>
       <use x="95.41015625" xlink:href="#DejaVuSans-30"/>
       <use x="159.033203125" xlink:href="#DejaVuSans-30"/>
       <use x="222.65625" xlink:href="#DejaVuSans-30"/>
       <use x="286.279296875" xlink:href="#DejaVuSans-36"/>
      </g>
     </g>
    </g>
    <g id="ytick_4">
     <g id="line2d_28">
      <g>
       <use style="stroke:#000000;stroke-width:0.5;" x="216.0" xlink:href="#m728421d6d4" y="490.32"/>
      </g>
     </g>
     <g id="line2d_29">
      <g>
       <use style="stroke:#000000;stroke-width:0.5;" x="1555.2" xlink:href="#mcb0005524f" y="490.32"/>
      </g>
     </g>
     <g id="text_15">
      <!-- 0.0008 -->
      <defs>
       <path d="
M31.7812 34.625
Q24.75 34.625 20.7188 30.8594
Q16.7031 27.0938 16.7031 20.5156
Q16.7031 13.9219 20.7188 10.1562
Q24.75 6.39062 31.7812 6.39062
Q38.8125 6.39062 42.8594 10.1719
Q46.9219 13.9688 46.9219 20.5156
Q46.9219 27.0938 42.8906 30.8594
Q38.875 34.625 31.7812 34.625
M21.9219 38.8125
Q15.5781 40.375 12.0312 44.7188
Q8.5 49.0781 8.5 55.3281
Q8.5 64.0625 14.7188 69.1406
Q20.9531 74.2188 31.7812 74.2188
Q42.6719 74.2188 48.875 69.1406
Q55.0781 64.0625 55.0781 55.3281
Q55.0781 49.0781 51.5312 44.7188
Q48 40.375 41.7031 38.8125
Q48.8281 37.1562 52.7969 32.3125
Q56.7812 27.4844 56.7812 20.5156
Q56.7812 9.90625 50.3125 4.23438
Q43.8438 -1.42188 31.7812 -1.42188
Q19.7344 -1.42188 13.25 4.23438
Q6.78125 9.90625 6.78125 20.5156
Q6.78125 27.4844 10.7812 32.3125
Q14.7969 37.1562 21.9219 38.8125
M18.3125 54.3906
Q18.3125 48.7344 21.8438 45.5625
Q25.3906 42.3906 31.7812 42.3906
Q38.1406 42.3906 41.7188 45.5625
Q45.3125 48.7344 45.3125 54.3906
Q45.3125 60.0625 41.7188 63.2344
Q38.1406 66.4062 31.7812 66.4062
Q25.3906 66.4062 21.8438 63.2344
Q18.3125 60.0625 18.3125 54.3906" id="DejaVuSans-38"/>
      </defs>
      <g transform="translate(171.62375 493.63125)scale(0.12 -0.12)">
       <use xlink:href="#DejaVuSans-30"/>
       <use x="63.623046875" xlink:href="#DejaVuSans-2e"/>
       <use x="95.41015625" xlink:href="#DejaVuSans-30"/>
       <use x="159.033203125" xlink:href="#DejaVuSans-30"/>
       <use x="222.65625" xlink:href="#DejaVuSans-30"/>
       <use x="286.279296875" xlink:href="#DejaVuSans-38"/>
      </g>
     </g>
    </g>
    <g id="ytick_5">
     <g id="line2d_30">
      <g>
       <use style="stroke:#000000;stroke-width:0.5;" x="216.0" xlink:href="#m728421d6d4" y="408.6"/>
      </g>
     </g>
     <g id="line2d_31">
      <g>
       <use style="stroke:#000000;stroke-width:0.5;" x="1555.2" xlink:href="#mcb0005524f" y="408.6"/>
      </g>
     </g>
     <g id="text_16">
      <!-- 0.0010 -->
      <g transform="translate(171.599375 411.91125)scale(0.12 -0.12)">
       <use xlink:href="#DejaVuSans-30"/>
       <use x="63.623046875" xlink:href="#DejaVuSans-2e"/>
       <use x="95.41015625" xlink:href="#DejaVuSans-30"/>
       <use x="159.033203125" xlink:href="#DejaVuSans-30"/>
       <use x="222.65625" xlink:href="#DejaVuSans-31"/>
       <use x="286.279296875" xlink:href="#DejaVuSans-30"/>
      </g>
     </g>
    </g>
    <g id="ytick_6">
     <g id="line2d_32">
      <g>
       <use style="stroke:#000000;stroke-width:0.5;" x="216.0" xlink:href="#m728421d6d4" y="326.88"/>
      </g>
     </g>
     <g id="line2d_33">
      <g>
       <use style="stroke:#000000;stroke-width:0.5;" x="1555.2" xlink:href="#mcb0005524f" y="326.88"/>
      </g>
     </g>
     <g id="text_17">
      <!-- 0.0012 -->
      <g transform="translate(172.004375 330.19125)scale(0.12 -0.12)">
       <use xlink:href="#DejaVuSans-30"/>
       <use x="63.623046875" xlink:href="#DejaVuSans-2e"/>
       <use x="95.41015625" xlink:href="#DejaVuSans-30"/>
       <use x="159.033203125" xlink:href="#DejaVuSans-30"/>
       <use x="222.65625" xlink:href="#DejaVuSans-31"/>
       <use x="286.279296875" xlink:href="#DejaVuSans-32"/>
      </g>
     </g>
    </g>
    <g id="ytick_7">
     <g id="line2d_34">
      <g>
       <use style="stroke:#000000;stroke-width:0.5;" x="216.0" xlink:href="#m728421d6d4" y="245.16"/>
      </g>
     </g>
     <g id="line2d_35">
      <g>
       <use style="stroke:#000000;stroke-width:0.5;" x="1555.2" xlink:href="#mcb0005524f" y="245.16"/>
      </g>
     </g>
     <g id="text_18">
      <!-- 0.0014 -->
      <g transform="translate(171.475625 248.47125)scale(0.12 -0.12)">
       <use xlink:href="#DejaVuSans-30"/>
       <use x="63.623046875" xlink:href="#DejaVuSans-2e"/>
       <use x="95.41015625" xlink:href="#DejaVuSans-30"/>
       <use x="159.033203125" xlink:href="#DejaVuSans-30"/>
       <use x="222.65625" xlink:href="#DejaVuSans-31"/>
       <use x="286.279296875" xlink:href="#DejaVuSans-34"/>
      </g>
     </g>
    </g>
    <g id="ytick_8">
     <g id="line2d_36">
      <g>
       <use style="stroke:#000000;stroke-width:0.5;" x="216.0" xlink:href="#m728421d6d4" y="163.44"/>
      </g>
     </g>
     <g id="line2d_37">
      <g>
       <use style="stroke:#000000;stroke-width:0.5;" x="1555.2" xlink:href="#mcb0005524f" y="163.44"/>
      </g>
     </g>
     <g id="text_19">
      <!-- 0.0016 -->
      <g transform="translate(171.558125 166.75125)scale(0.12 -0.12)">
       <use xlink:href="#DejaVuSans-30"/>
       <use x="63.623046875" xlink:href="#DejaVuSans-2e"/>
       <use x="95.41015625" xlink:href="#DejaVuSans-30"/>
       <use x="159.033203125" xlink:href="#DejaVuSans-30"/>
       <use x="222.65625" xlink:href="#DejaVuSans-31"/>
       <use x="286.279296875" xlink:href="#DejaVuSans-36"/>
      </g>
     </g>
    </g>
    <g id="ytick_9">
     <g id="line2d_38">
      <g>
       <use style="stroke:#000000;stroke-width:0.5;" x="216.0" xlink:href="#m728421d6d4" y="81.72"/>
      </g>
     </g>
     <g id="line2d_39">
      <g>
       <use style="stroke:#000000;stroke-width:0.5;" x="1555.2" xlink:href="#mcb0005524f" y="81.72"/>
      </g>
     </g>
     <g id="text_20">
      <!-- 0.0018 -->
      <g transform="translate(171.62375 85.03125)scale(0.12 -0.12)">
       <use xlink:href="#DejaVuSans-30"/>
       <use x="63.623046875" xlink:href="#DejaVuSans-2e"/>
       <use x="95.41015625" xlink:href="#DejaVuSans-30"/>
       <use x="159.033203125" xlink:href="#DejaVuSans-30"/>
       <use x="222.65625" xlink:href="#DejaVuSans-31"/>
       <use x="286.279296875" xlink:href="#DejaVuSans-38"/>
      </g>
     </g>
    </g>
   </g>
   <g id="patch_3">
    <path d="
M216 81.72
L1555.2 81.72" style="fill:none;stroke:#000000;"/>
   </g>
   <g id="patch_4">
    <path d="
M1555.2 735.48
L1555.2 81.72" style="fill:none;stroke:#000000;"/>
   </g>
   <g id="patch_5">
    <path d="
M216 735.48
L1555.2 735.48" style="fill:none;stroke:#000000;"/>
   </g>
   <g id="patch_6">
    <path d="
M216 735.48
L216 81.72" style="fill:none;stroke:#000000;"/>
   </g>
  </g>
 </g>
 <defs>
  <clipPath id="pb795613d17">
   <rect height="653.76" width="1339.2" x="216.0" y="81.72"/>
  </clipPath>
 </defs>
</svg>
